<svg width="13" height="21" viewBox="0 0 13 21" fill="none" xmlns="http://www.w3.org/2000/svg">
<path fill-rule="evenodd" clip-rule="evenodd" d="M8.11712 7.36674L11.7171 5.26674V9.46674L8.11712 7.36674ZM11.7171 16.3667L6.91711 19.1667L2.11711 16.3667V11.4667L6.91711 14.2667L11.7171 11.4667V16.3667ZM2.11711 5.26674L5.71711 7.36674L2.11711 9.46674V5.26674ZM7.51711 8.36674L11.1171 10.4667L7.51711 12.5667V8.36674ZM6.31711 12.5667L2.71711 10.4667L6.31711 8.36674V12.5667ZM11.1171 4.26674L6.91711 6.66674L2.71711 4.26674L6.91711 1.76674L11.1171 4.26674ZM0.917114 3.86674V16.9667L6.91711 20.3667L12.9171 16.9667V3.86674L6.91711 0.466736L0.917114 3.86674Z" fill="#13B5EC"/>
</svg>
