<svg width="16" height="13" viewBox="0 0 16 13" fill="none" xmlns="http://www.w3.org/2000/svg">
<path d="M11.7879 4.10653C11.5211 3.95409 11.1781 3.95409 10.8733 4.10653L8.73911 5.36416L7.29093 6.16447L5.19488 7.4221C4.92811 7.57454 4.58513 7.57454 4.28025 7.4221L2.64152 6.43124C2.37475 6.2788 2.1842 5.97392 2.1842 5.63093V3.72544C2.1842 3.42056 2.33664 3.11568 2.64152 2.92513L4.28025 1.97238C4.54702 1.81994 4.89 1.81994 5.19488 1.97238L6.83361 2.96324C7.10038 3.11568 7.29093 3.42056 7.29093 3.76355V5.02117L8.73911 4.18275V2.88702C8.73911 2.58214 8.58667 2.27726 8.28179 2.08671L5.23299 0.295543C4.96622 0.143103 4.62324 0.143103 4.31836 0.295543L1.19334 2.12482C0.888463 2.27726 0.736023 2.58214 0.736023 2.88702V6.46935C0.736023 6.77423 0.888463 7.07911 1.19334 7.26966L4.28025 9.06082C4.54702 9.21326 4.89 9.21326 5.19488 9.06082L7.29093 7.84131L8.73911 7.00289L10.8352 5.78337C11.1019 5.63093 11.4449 5.63093 11.7498 5.78337L13.3885 6.73612C13.6553 6.88856 13.8458 7.19344 13.8458 7.53643V9.44192C13.8458 9.7468 13.6934 10.0517 13.3885 10.2422L11.7879 11.195C11.5211 11.3474 11.1781 11.3474 10.8733 11.195L9.23454 10.2422C8.96777 10.0898 8.77722 9.78491 8.77722 9.44192V8.22241L7.32904 9.06082V10.3185C7.32904 10.6233 7.48148 10.9282 7.78636 11.1188L10.8733 12.9099C11.14 13.0624 11.483 13.0624 11.7879 12.9099L14.8748 11.1188C15.1416 10.9663 15.3321 10.6614 15.3321 10.3185V6.69801C15.3321 6.39313 15.1797 6.08825 14.8748 5.8977L11.7879 4.10653Z" fill="#8247E5"/>
</svg>
