<svg width="389" height="86" viewBox="0 0 389 86" fill="none" xmlns="http://www.w3.org/2000/svg">
<path d="M317.828 45.189C317.144 45.189 316.577 44.982 316.127 44.568C315.695 44.136 315.479 43.605 315.479 42.975C315.479 42.345 315.695 41.823 316.127 41.409C316.577 40.977 317.144 40.761 317.828 40.761C318.494 40.761 319.043 40.977 319.475 41.409C319.907 41.823 320.123 42.345 320.123 42.975C320.123 43.605 319.907 44.136 319.475 44.568C319.043 44.982 318.494 45.189 317.828 45.189ZM329.404 41.517L333.184 30.042H337.207L331.672 45H327.082L321.574 30.042H325.624L329.404 41.517ZM338.358 37.521C338.358 35.973 338.673 34.623 339.303 33.471C339.933 32.301 340.806 31.401 341.922 30.771C343.038 30.123 344.316 29.799 345.756 29.799C347.61 29.799 349.14 30.267 350.346 31.203C351.57 32.121 352.389 33.417 352.803 35.091H348.726C348.51 34.443 348.141 33.939 347.619 33.579C347.115 33.201 346.485 33.012 345.729 33.012C344.649 33.012 343.794 33.408 343.164 34.2C342.534 34.974 342.219 36.081 342.219 37.521C342.219 38.943 342.534 40.05 343.164 40.842C343.794 41.616 344.649 42.003 345.729 42.003C347.259 42.003 348.258 41.319 348.726 39.951H352.803C352.389 41.571 351.57 42.858 350.346 43.812C349.122 44.766 347.592 45.243 345.756 45.243C344.316 45.243 343.038 44.928 341.922 44.298C340.806 43.65 339.933 42.75 339.303 41.598C338.673 40.428 338.358 39.069 338.358 37.521Z" fill="#FDA21A"/>
<path d="M36.9226 39.015H24.4126L22.3426 45H15.7276L27.0226 13.545H34.3576L45.6526 45H38.9926L36.9226 39.015ZM35.2126 33.975L30.6676 20.835L26.1226 33.975H35.2126ZM60.2695 39.195L66.5695 20.07H73.2745L64.0495 45H56.3995L47.2195 20.07H53.9695L60.2695 39.195ZM99.988 31.995C99.988 32.895 99.928 33.705 99.808 34.425H81.583C81.733 36.225 82.363 37.635 83.473 38.655C84.583 39.675 85.948 40.185 87.568 40.185C89.908 40.185 91.573 39.18 92.563 37.17H99.358C98.638 39.57 97.258 41.55 95.218 43.11C93.178 44.64 90.673 45.405 87.703 45.405C85.303 45.405 83.143 44.88 81.223 43.83C79.333 42.75 77.848 41.235 76.768 39.285C75.718 37.335 75.193 35.085 75.193 32.535C75.193 29.955 75.718 27.69 76.768 25.74C77.818 23.79 79.288 22.29 81.178 21.24C83.068 20.19 85.243 19.665 87.703 19.665C90.073 19.665 92.188 20.175 94.048 21.195C95.938 22.215 97.393 23.67 98.413 25.56C99.463 27.42 99.988 29.565 99.988 31.995ZM93.463 30.195C93.433 28.575 92.848 27.285 91.708 26.325C90.568 25.335 89.173 24.84 87.523 24.84C85.963 24.84 84.643 25.32 83.563 26.28C82.513 27.21 81.868 28.515 81.628 30.195H93.463ZM110.886 23.94C111.696 22.62 112.746 21.585 114.036 20.835C115.356 20.085 116.856 19.71 118.536 19.71V26.325H116.871C114.891 26.325 113.391 26.79 112.371 27.72C111.381 28.65 110.886 30.27 110.886 32.58V45H104.586V20.07H110.886V23.94ZM121.16 32.445C121.16 29.925 121.655 27.69 122.645 25.74C123.665 23.79 125.03 22.29 126.74 21.24C128.48 20.19 130.415 19.665 132.545 19.665C134.405 19.665 136.025 20.04 137.405 20.79C138.815 21.54 139.94 22.485 140.78 23.625V20.07H147.125V45H140.78V41.355C139.97 42.525 138.845 43.5 137.405 44.28C135.995 45.03 134.36 45.405 132.5 45.405C130.4 45.405 128.48 44.865 126.74 43.785C125.03 42.705 123.665 41.19 122.645 39.24C121.655 37.26 121.16 34.995 121.16 32.445ZM140.78 32.535C140.78 31.005 140.48 29.7 139.88 28.62C139.28 27.51 138.47 26.67 137.45 26.1C136.43 25.5 135.335 25.2 134.165 25.2C132.995 25.2 131.915 25.485 130.925 26.055C129.935 26.625 129.125 27.465 128.495 28.575C127.895 29.655 127.595 30.945 127.595 32.445C127.595 33.945 127.895 35.265 128.495 36.405C129.125 37.515 129.935 38.37 130.925 38.97C131.945 39.57 133.025 39.87 134.165 39.87C135.335 39.87 136.43 39.585 137.45 39.015C138.47 38.415 139.28 37.575 139.88 36.495C140.48 35.385 140.78 34.065 140.78 32.535ZM163.043 19.665C164.903 19.665 166.538 20.04 167.948 20.79C169.358 21.51 170.468 22.455 171.278 23.625V20.07H177.623V45.18C177.623 47.49 177.158 49.545 176.228 51.345C175.298 53.175 173.903 54.615 172.043 55.665C170.183 56.745 167.933 57.285 165.293 57.285C161.753 57.285 158.843 56.46 156.563 54.81C154.313 53.16 153.038 50.91 152.738 48.06H158.993C159.323 49.2 160.028 50.1 161.108 50.76C162.218 51.45 163.553 51.795 165.113 51.795C166.943 51.795 168.428 51.24 169.568 50.13C170.708 49.05 171.278 47.4 171.278 45.18V41.31C170.468 42.48 169.343 43.455 167.903 44.235C166.493 45.015 164.873 45.405 163.043 45.405C160.943 45.405 159.023 44.865 157.283 43.785C155.543 42.705 154.163 41.19 153.143 39.24C152.153 37.26 151.658 34.995 151.658 32.445C151.658 29.925 152.153 27.69 153.143 25.74C154.163 23.79 155.528 22.29 157.238 21.24C158.978 20.19 160.913 19.665 163.043 19.665ZM171.278 32.535C171.278 31.005 170.978 29.7 170.378 28.62C169.778 27.51 168.968 26.67 167.948 26.1C166.928 25.5 165.833 25.2 164.663 25.2C163.493 25.2 162.413 25.485 161.423 26.055C160.433 26.625 159.623 27.465 158.993 28.575C158.393 29.655 158.093 30.945 158.093 32.445C158.093 33.945 158.393 35.265 158.993 36.405C159.623 37.515 160.433 38.37 161.423 38.97C162.443 39.57 163.523 39.87 164.663 39.87C165.833 39.87 166.928 39.585 167.948 39.015C168.968 38.415 169.778 37.575 170.378 36.495C170.978 35.385 171.278 34.065 171.278 32.535ZM206.951 31.995C206.951 32.895 206.891 33.705 206.771 34.425H188.546C188.696 36.225 189.326 37.635 190.436 38.655C191.546 39.675 192.911 40.185 194.531 40.185C196.871 40.185 198.536 39.18 199.526 37.17H206.321C205.601 39.57 204.221 41.55 202.181 43.11C200.141 44.64 197.636 45.405 194.666 45.405C192.266 45.405 190.106 44.88 188.186 43.83C186.296 42.75 184.811 41.235 183.731 39.285C182.681 37.335 182.156 35.085 182.156 32.535C182.156 29.955 182.681 27.69 183.731 25.74C184.781 23.79 186.251 22.29 188.141 21.24C190.031 20.19 192.206 19.665 194.666 19.665C197.036 19.665 199.151 20.175 201.011 21.195C202.901 22.215 204.356 23.67 205.376 25.56C206.426 27.42 206.951 29.565 206.951 31.995ZM200.426 30.195C200.396 28.575 199.811 27.285 198.671 26.325C197.531 25.335 196.136 24.84 194.486 24.84C192.926 24.84 191.606 25.32 190.526 26.28C189.476 27.21 188.831 28.515 188.591 30.195H200.426ZM245.794 13.59V45H239.494V24.57L231.079 45H226.309L217.849 24.57V45H211.549V13.59H218.704L228.694 36.945L238.684 13.59H245.794ZM275.198 31.995C275.198 32.895 275.138 33.705 275.018 34.425H256.793C256.943 36.225 257.573 37.635 258.683 38.655C259.793 39.675 261.158 40.185 262.778 40.185C265.118 40.185 266.783 39.18 267.773 37.17H274.568C273.848 39.57 272.468 41.55 270.428 43.11C268.388 44.64 265.883 45.405 262.913 45.405C260.513 45.405 258.353 44.88 256.433 43.83C254.543 42.75 253.058 41.235 251.978 39.285C250.928 37.335 250.403 35.085 250.403 32.535C250.403 29.955 250.928 27.69 251.978 25.74C253.028 23.79 254.498 22.29 256.388 21.24C258.278 20.19 260.453 19.665 262.913 19.665C265.283 19.665 267.398 20.175 269.258 21.195C271.148 22.215 272.603 23.67 273.623 25.56C274.673 27.42 275.198 29.565 275.198 31.995ZM268.673 30.195C268.643 28.575 268.058 27.285 266.918 26.325C265.778 25.335 264.383 24.84 262.733 24.84C261.173 24.84 259.853 25.32 258.773 26.28C257.723 27.21 257.078 28.515 256.838 30.195H268.673ZM293.611 19.71C296.581 19.71 298.981 20.655 300.811 22.545C302.641 24.405 303.556 27.015 303.556 30.375V45H297.256V31.23C297.256 29.25 296.761 27.735 295.771 26.685C294.781 25.605 293.431 25.065 291.721 25.065C289.981 25.065 288.601 25.605 287.581 26.685C286.591 27.735 286.096 29.25 286.096 31.23V45H279.796V20.07H286.096V23.175C286.936 22.095 288.001 21.255 289.291 20.655C290.611 20.025 292.051 19.71 293.611 19.71Z" fill="#F5F5F5"/>
</svg>
