<svg width="149" height="58" viewBox="0 0 149 58" fill="none" xmlns="http://www.w3.org/2000/svg">
<path d="M25.1946 0.680103C12.7698 2.06311 2.86556 11.2089 0.389512 23.5891C-0.168156 26.3997 -0.123543 31.7311 0.501045 34.564C1.72791 40.2076 4.15935 44.6466 8.24148 48.7287C13.439 53.9262 19.618 56.6922 26.8899 57.0268C32.9796 57.3169 38.9802 55.6662 44.1107 52.2532C45.9621 51.0264 49.2412 47.9703 50.6466 46.1189C53.0334 43.0405 54.7956 39.3376 55.7994 35.3001C56.3348 33.1587 56.4017 32.4672 56.424 28.9873C56.424 26.0205 56.3348 24.6375 56.0225 23.1876C53.5688 11.8335 44.8914 3.24535 33.5596 1.01471C31.3513 0.590881 27.4253 0.412419 25.1946 0.680103ZM34.2288 5.0968C39.0248 6.41297 42.4376 8.42051 45.8506 11.9673C48.0367 14.2649 49.0628 15.7371 50.4011 18.5701C53.9925 26.1544 53.3233 35.1216 48.6613 42.1929C40.787 54.1716 24.3693 56.8707 13.1935 48.0149C9.98142 45.4719 7.77304 42.7059 6.12234 39.1815C2.24097 30.9057 3.24477 21.3138 8.70992 14.1087C12.3459 9.3574 17.2757 6.23445 23.2985 4.87379C25.8861 4.29383 31.7305 4.40534 34.2288 5.0968Z" fill="white"/>
<path d="M24.5924 8.62194C24.2131 8.71111 24.1908 9.80418 24.1908 27.471V46.231L23.5216 46.0749C22.2501 45.8295 19.4395 44.5357 17.8334 43.465C15.7812 42.082 13.5505 39.7397 12.3459 37.6429C11.8329 36.7506 11.3868 35.9923 11.3644 35.9476C11.3199 35.903 8.75452 36.9961 8.59842 37.1299C8.46458 37.286 10.1599 40.2082 11.1413 41.4797C14.6212 46.008 20.2872 49.1978 25.7077 49.6662L27.3138 49.8V29.1217V8.46576L26.1538 8.4881C25.5069 8.51034 24.7931 8.55502 24.5924 8.62194Z" fill="white"/>
<path d="M29.2766 29.0322C29.299 40.3417 29.3659 49.6213 29.4105 49.6659C29.589 49.8667 33.1357 49.2197 34.6303 48.729C39.6047 47.056 43.6422 43.9554 46.5197 39.6055C47.2336 38.5126 47.8359 37.4864 47.8359 37.3526C47.8359 36.9957 45.0698 35.8135 44.9583 36.148C44.6683 37.018 42.46 39.8732 40.9654 41.3009C38.9132 43.2415 36.8386 44.5577 34.2734 45.4945L32.4443 46.1637V29.0991C32.4443 15.5813 32.5112 12.0345 32.7342 12.0345C33.3141 12.0568 36.3256 13.3729 37.7755 14.2428C40.43 15.8489 43.0399 18.5034 44.5122 21.1133C44.8021 21.6486 45.1145 22.0725 45.1814 22.0725C45.2706 22.0725 45.9398 21.7825 46.6982 21.4479L48.0813 20.8233L46.7652 18.8157C44.2891 15.0459 41.4338 12.4807 37.5748 10.5622C35.3664 9.46921 31.8866 8.46539 30.2359 8.46539H29.2097L29.2766 29.0322Z" fill="white"/>
<path d="M75.7501 8.85667C75.7501 17.2619 75.7154 17.7482 75.0555 18.408C73.6662 19.7974 72.2769 18.9638 72.0338 16.5672L71.8254 14.9348H69.9846H68.109V16.7409C68.109 20.2489 69.9846 21.8813 74.0482 21.8813C76.6879 21.8813 78.5981 20.9088 79.4665 19.1374C79.9875 18.0607 80.0917 16.6019 80.1958 8.92615L80.3348 -6.10352e-05H78.0424H75.7501V8.85667Z" fill="white"/>
<path d="M104.231 5.24601C103.779 5.45446 103.12 5.83647 102.807 6.11431C102.286 6.56581 102.216 6.56581 102.042 5.90595C101.904 5.3155 101.591 5.21132 99.9244 5.21132H97.9795V13.3734V21.5354H100.063H102.147V15.8741C102.147 9.58758 102.425 8.58032 103.988 8.40666C105.863 8.19831 105.968 8.54562 105.968 15.3183V21.5354H108.051H110.136V15.7004C110.136 11.0115 110.24 9.72645 110.691 9.1013C111.386 8.12883 113.088 8.05934 113.609 8.99712C113.817 9.41392 113.956 12.1925 113.956 15.5963V21.5354H116.075H118.158L118.054 14.4848C117.95 6.46163 117.777 5.90595 115.345 5.17653C113.574 4.65556 111.524 5.17653 110.518 6.46163L109.823 7.32992L109.441 6.60059C108.677 5.21132 106.072 4.51668 104.231 5.24601Z" fill="white"/>
<path d="M127.155 5.1065C126.877 5.21067 126.218 5.69687 125.697 6.18315L124.724 7.08623V6.14845C124.724 5.24537 124.654 5.21067 122.813 5.21067H120.904V15.9776V26.7447H122.987H125.072V23.4103V20.076L125.731 20.8749C126.286 21.6043 126.704 21.7085 128.545 21.7085C130.524 21.7085 130.767 21.6043 131.67 20.597C133.06 19.0688 133.407 17.4712 133.407 13.0254C133.407 8.75333 132.782 6.7736 131.184 5.73165C130.246 5.10649 127.989 4.75918 127.155 5.1065ZM128.093 8.26705C128.857 8.75333 129.239 10.4552 129.239 13.5811C129.239 17.4017 128.683 18.7563 127.155 18.7563C125.453 18.7563 125.072 17.749 125.072 13.4422C125.072 9.93425 125.14 9.65641 125.939 8.85751C126.808 7.95452 127.364 7.81556 128.093 8.26705Z" fill="white"/>
<path d="M82.9395 5.45398C82.5575 5.80139 82.6617 17.7493 83.0437 19.1385C83.53 20.9099 84.4677 21.6392 86.6211 21.8129C88.1494 21.9171 88.6353 21.8129 89.7468 21.0488C90.9625 20.2153 91.0323 20.2153 91.0323 20.8404C91.0323 21.4656 91.2751 21.5351 93.1158 21.5351H95.2003L95.1305 13.4425L95.0263 5.38459L93.047 5.28033L91.0667 5.17615L90.9625 11.2196C90.8583 16.603 90.7886 17.3671 90.1988 18.0271C89.3301 18.9649 88.0799 18.9649 87.42 17.9924C86.9685 17.3671 86.8643 16.0821 86.8643 11.2196V5.21093H85.0234C83.9815 5.21093 83.0437 5.31511 82.9395 5.45398Z" fill="white"/>
<path d="M72.4489 30.2464C68.9061 31.4968 67.899 34.2407 68.142 42.1249C68.281 47.0568 68.3157 47.4042 69.2534 48.9672C70.7817 51.6068 74.1508 52.614 77.8671 51.6068C80.2289 50.9469 81.9655 48.0989 81.9655 44.9035V43.6184H79.8815H77.7976V45.1814C77.7976 47.9946 76.4778 49.5229 74.4633 49.0367C73.0393 48.6546 72.5183 47.0568 72.3446 42.4375C72.1363 37.8528 72.5877 34.5185 73.5255 33.4766C74.2896 32.643 76.1305 32.6778 76.8946 33.5113C77.2419 33.8934 77.5893 34.8311 77.6934 35.5953L77.9018 37.0192H79.951H82.035L81.7918 35.3868C81.3403 32.4346 80.0205 30.7675 77.6239 30.1076C75.7832 29.6213 74.116 29.6561 72.4489 30.2464Z" fill="white"/>
<path d="M114.267 31.8089V33.5455H116.178H118.088V31.8089V30.0723H116.178H114.267V31.8089Z" fill="white"/>
<path d="M144.832 40.84V51.607H146.916H149V40.84V30.073H146.916H144.832V40.84Z" fill="white"/>
<path d="M121.909 33.1991V35.6304H120.867C119.895 35.6304 119.825 35.6998 119.825 37.0196C119.825 38.3394 119.895 38.4089 120.867 38.4089H121.909L121.944 42.82C121.944 48.2034 122.291 50.5305 123.16 51.1557C123.541 51.4335 124.722 51.6072 126.146 51.6072H128.508V50.2526C128.508 48.9675 128.438 48.8633 127.396 48.7591L126.25 48.655L126.146 43.3409L126.042 38.0616H127.292C128.438 38.0616 128.508 37.9921 128.508 36.846C128.508 35.6998 128.438 35.6304 127.292 35.6304H126.077V33.1991V30.7678H123.993H121.909V33.1991Z" fill="white"/>
<path d="M87.0016 35.63C85.8208 36.0816 84.7441 37.5403 84.5009 38.8948L84.2926 40.1452H86.0292C87.6269 40.1452 87.7658 40.0757 88.2521 38.9991C88.6344 38.096 88.9814 37.8529 89.9543 37.7835C91.3086 37.6445 92.0378 38.3392 92.0378 39.8326C92.0378 41.0483 91.6556 41.3261 88.4605 42.2639C84.883 43.3059 84.0494 44.2089 84.0494 47.1264C84.0494 49.5229 84.6746 50.947 85.9597 51.5374C87.8352 52.4057 90.8221 51.7458 91.6556 50.3218C91.9337 49.766 92.0034 49.8355 92.2118 50.6691C92.4546 51.5374 92.594 51.6069 94.2609 51.6069H96.0319L95.9277 44.973C95.8589 41.2914 95.6496 37.9571 95.4766 37.5056C94.9204 36.0121 93.2191 35.2827 90.3013 35.3175C88.8772 35.3175 87.3837 35.4563 87.0016 35.63ZM92.0378 45.3898C92.0378 47.8558 91.2742 49.1756 89.8148 49.1756C88.3219 49.1756 87.4184 47.3001 88.0784 45.5287C88.3219 44.973 90.6835 43.6879 91.6211 43.6532C91.8992 43.6185 92.0378 44.1742 92.0378 45.3898Z" fill="white"/>
<path d="M103.814 36.359L102.806 37.4356V36.5326C102.806 35.6642 102.736 35.6295 100.896 35.6295H98.986V46.2229V56.8162H101.07H103.153V53.4819V50.1476L104.265 51.0854C105.238 51.8843 105.62 52.0231 107.043 51.8843C110.239 51.5716 111.489 49.1404 111.489 43.3054C111.489 39.3112 111.072 37.5746 109.753 36.2547C108.885 35.4212 108.502 35.2822 106.8 35.2822C105.029 35.2822 104.717 35.3864 103.814 36.359ZM106.592 38.7207C108.016 40.1448 107.912 46.8481 106.453 48.3415C104.821 49.9392 103.361 48.6194 103.015 45.1809C102.459 39.9363 104.369 36.4978 106.592 38.7207Z" fill="white"/>
<path d="M132.398 35.8723C131.147 36.4975 130.245 37.8867 130.245 39.2761C130.245 40.0749 130.349 40.1444 131.912 40.1444C133.406 40.1444 133.579 40.0401 134.065 38.9982C135.038 36.9143 137.886 37.5047 137.886 39.7971C137.886 41.0127 137.538 41.221 133.787 42.402C131.842 43.0271 130.835 43.5134 130.453 44.1039C129.202 46.0488 129.48 49.7652 130.974 51.1198C131.53 51.606 132.224 51.7796 133.718 51.7796C135.489 51.7796 135.906 51.6408 136.809 50.7725L137.816 49.7999L137.955 50.5988C138.059 51.3281 138.268 51.4323 139.97 51.5365L141.88 51.6408L141.706 44.7638C141.498 37.1921 141.359 36.5669 139.449 35.7681C137.816 35.1082 133.857 35.1429 132.398 35.8723ZM137.469 47.6813C136.358 50.0084 133.718 49.3137 133.718 46.7435C133.718 45.25 134.204 44.729 136.288 43.9649L137.712 43.4092L137.816 45.0763C137.886 46.0141 137.712 47.1602 137.469 47.6813Z" fill="white"/>
<path d="M114.267 43.6187V51.6071H116.178H118.088V43.6187V35.6303H116.178H114.267V43.6187Z" fill="white"/>
</svg>
