<svg xmlns="http://www.w3.org/2000/svg" width="231" height="49" viewBox="0 0 888.965 188.948">
  <g id="MoonStarterFull" transform="translate(12.945 0.006)">
    <g id="Text" transform="translate(231.472 62.709)">
      <path id="Pfad_9" data-name="Pfad 9" d="M353.477,78.309v58.619a1.659,1.659,0,0,1-1.659,1.659H340.054a1.659,1.659,0,0,1-1.659-1.659V110.622a1.659,1.659,0,0,0-3.211-.581L324.956,137.5a1.659,1.659,0,0,1-1.56,1.087h-9.864a1.659,1.659,0,0,1-1.56-1.078l-10.32-27.567a1.659,1.659,0,0,0-3.211.581v26.406a1.659,1.659,0,0,1-1.659,1.659H285.019a1.659,1.659,0,0,1-1.659-1.659V78.309a1.659,1.659,0,0,1,1.659-1.659h15.049a1.659,1.659,0,0,1,1.535,1.037l15.414,38a1.659,1.659,0,0,0,3.078,0l15.231-38a1.659,1.659,0,0,1,1.543-1.045H351.8a1.659,1.659,0,0,1,1.676,1.659Z" transform="translate(-283.36 -75.749)" fill="#c2e1e6"/>
      <path id="Pfad_10" data-name="Pfad 10" d="M392.947,134.947a30.324,30.324,0,0,1-11.556-11.332,33.342,33.342,0,0,1,0-32.686,30.432,30.432,0,0,1,11.556-11.283,33.607,33.607,0,0,1,32.014,0,29.785,29.785,0,0,1,11.465,11.282,33.814,33.814,0,0,1-.041,32.686,30.139,30.139,0,0,1-11.465,11.332,33.524,33.524,0,0,1-31.973,0m27.866-14.642a21.412,21.412,0,0,0,0-26.165,15.248,15.248,0,0,0-11.855-4.895A15.423,15.423,0,0,0,397,94.1a21.57,21.57,0,0,0,0,26.24,16.882,16.882,0,0,0,23.81,0" transform="translate(-299.336 -75.568)" fill="#c2e1e6"/>
      <path id="Pfad_11" data-name="Pfad 11" d="M474.749,134.947a30.382,30.382,0,0,1-11.557-11.332,33.384,33.384,0,0,1,0-32.686,30.546,30.546,0,0,1,11.557-11.282,33.623,33.623,0,0,1,32.022,0,29.865,29.865,0,0,1,11.465,11.282,33.814,33.814,0,0,1-.05,32.686,30.135,30.135,0,0,1-11.465,11.332,33.523,33.523,0,0,1-31.972,0m27.866-14.642a21.412,21.412,0,0,0,0-26.165,15.247,15.247,0,0,0-11.855-4.895A15.421,15.421,0,0,0,478.805,94.1a21.568,21.568,0,0,0,0,26.24,15.371,15.371,0,0,0,11.954,4.895,15.2,15.2,0,0,0,11.855-4.928" transform="translate(-313.276 -75.569)" fill="#c2e1e6"/>
      <path id="Pfad_12" data-name="Pfad 12" d="M598.463,138.587H585.936a1.659,1.659,0,0,1-1.385-.746L562.857,105a1.659,1.659,0,0,0-3.045.921v31.01a1.659,1.659,0,0,1-1.659,1.659H546.389a1.659,1.659,0,0,1-1.659-1.659V78.309a1.659,1.659,0,0,1,1.659-1.659h12.527a1.659,1.659,0,0,1,1.394.747L582,110.39a1.659,1.659,0,0,0,3.045-.913V78.309a1.659,1.659,0,0,1,1.66-1.659h11.763a1.659,1.659,0,0,1,1.659,1.659v58.619A1.659,1.659,0,0,1,598.463,138.587Z" transform="translate(-327.899 -75.749)" fill="#c2e1e6"/>
      <path id="Pfad_13" data-name="Pfad 13" d="M637.22,136.81a19.907,19.907,0,0,1-8.6-6.529,17.821,17.821,0,0,1-3.318-8.611,1.659,1.659,0,0,1,1.659-1.8h12.859a1.66,1.66,0,0,1,1.61,1.269,7.778,7.778,0,0,0,2.214,3.982,7.658,7.658,0,0,0,5.309,1.809,8.3,8.3,0,0,0,5.31-1.543,5.175,5.175,0,0,0,1.941-4.281,5.078,5.078,0,0,0-1.543-3.791,12.632,12.632,0,0,0-3.792-2.489,61.825,61.825,0,0,0-6.4-2.2,68.653,68.653,0,0,1-9.789-3.708,18.1,18.1,0,0,1-6.529-5.467,15.241,15.241,0,0,1-2.729-9.441A16.2,16.2,0,0,1,631.686,80.5a25.718,25.718,0,0,1,16.31-4.9,26.031,26.031,0,0,1,16.492,4.9,17.52,17.52,0,0,1,6.637,11.813,1.659,1.659,0,0,1-1.659,1.808H656.342a1.659,1.659,0,0,1-1.659-1.286,6.333,6.333,0,0,0-2.049-3.426,7.789,7.789,0,0,0-5.185-1.726,6.51,6.51,0,0,0-4.413,1.46,5.265,5.265,0,0,0-1.659,4.148A5.192,5.192,0,0,0,644.2,97.96a45.9,45.9,0,0,0,8.835,3.683,82.168,82.168,0,0,1,9.739,3.883,18.5,18.5,0,0,1,6.488,5.376A14.44,14.44,0,0,1,672,120.027a17.855,17.855,0,0,1-2.688,9.607,18.931,18.931,0,0,1-7.807,6.886,26.78,26.78,0,0,1-12.079,2.555,31.84,31.84,0,0,1-12.179-2.207" transform="translate(-341.628 -75.564)" fill="#ff3f87"/>
      <path id="Pfad_14" data-name="Pfad 14" d="M733.884,78.309V87.07a1.659,1.659,0,0,1-1.659,1.659H719.134a1.659,1.659,0,0,0-1.659,1.659v46.54a1.659,1.659,0,0,1-1.66,1.659H704.051a1.659,1.659,0,0,1-1.659-1.659V90.4a1.659,1.659,0,0,0-1.659-1.659H687.659A1.66,1.66,0,0,1,686,87.078V78.309a1.66,1.66,0,0,1,1.659-1.659h44.582A1.659,1.659,0,0,1,733.884,78.309Z" transform="translate(-351.973 -75.749)" fill="#ff3f87"/>
      <path id="Pfad_15" data-name="Pfad 15" d="M779.028,127.634h-20.74a1.659,1.659,0,0,0-1.568,1.128l-2.9,8.686a1.66,1.66,0,0,1-1.568,1.128h-12.27a1.659,1.659,0,0,1-1.56-2.223l21.2-58.578a1.658,1.658,0,0,1,1.56-1.1h15.131a1.66,1.66,0,0,1,1.56,1.1l21.2,58.611a1.659,1.659,0,0,1-1.56,2.232H785.076a1.658,1.658,0,0,1-1.567-1.128l-2.945-8.7A1.659,1.659,0,0,0,779.028,127.634ZM775.594,113.8l-5.352-15.812a1.659,1.659,0,0,0-3.144,0L761.806,113.8a1.659,1.659,0,0,0,1.576,2.182h10.635a1.659,1.659,0,0,0,1.577-2.182Z" transform="translate(-360.888 -75.754)" fill="#ff3f87"/>
      <path id="Pfad_16" data-name="Pfad 16" d="M849.459,137.724l-11.946-21.661a1.661,1.661,0,0,0-1.452-.83h-.97a1.659,1.659,0,0,0-1.659,1.659v20.06a1.659,1.659,0,0,1-1.659,1.659H820.009a1.659,1.659,0,0,1-1.659-1.659V78.317a1.659,1.659,0,0,1,1.659-1.659h23.652A27.765,27.765,0,0,1,856.1,79.213a17.6,17.6,0,0,1,7.724,7.01,19.607,19.607,0,0,1,2.555,9.955A18.44,18.44,0,0,1,862.9,107.2a18.805,18.805,0,0,1-8.337,6.238,1.659,1.659,0,0,0-.888,2.4l11.8,20.242a1.659,1.659,0,0,1-1.427,2.489H850.92A1.66,1.66,0,0,1,849.459,137.724Zm-16.011-34.843a1.659,1.659,0,0,0,1.659,1.659h7.682a8.569,8.569,0,0,0,6.106-1.933,2.707,2.707,0,0,0,.224-.216,7.631,7.631,0,0,0,1.966-5.616,7.466,7.466,0,0,0-1.975-5.45,1.652,1.652,0,0,0-.216-.2,8.521,8.521,0,0,0-6.106-1.933h-7.682a1.659,1.659,0,0,0-1.659,1.659Z" transform="translate(-374.526 -75.749)" fill="#ff3f87"/>
      <path id="Pfad_17" data-name="Pfad 17" d="M929,78.309V87.07a1.659,1.659,0,0,1-1.659,1.659H914.26a1.659,1.659,0,0,0-1.659,1.659v46.54a1.659,1.659,0,0,1-1.659,1.659H899.179a1.659,1.659,0,0,1-1.659-1.659V90.4a1.659,1.659,0,0,0-1.659-1.659H882.769a1.659,1.659,0,0,1-1.659-1.659V78.309a1.659,1.659,0,0,1,1.659-1.659h44.574A1.659,1.659,0,0,1,929,78.309Z" transform="translate(-385.221 -75.749)" fill="#ff3f87"/>
      <path id="Pfad_18" data-name="Pfad 18" d="M960.183,90.4v9.192a1.659,1.659,0,0,0,1.66,1.659h16.881a1.66,1.66,0,0,1,1.66,1.659v8.3a1.66,1.66,0,0,1-1.66,1.659H961.843a1.659,1.659,0,0,0-1.66,1.659v10.27a1.659,1.659,0,0,0,1.66,1.659h19.528a1.659,1.659,0,0,1,1.659,1.659V136.9a1.659,1.659,0,0,1-1.659,1.659h-34.6a1.659,1.659,0,0,1-1.659-1.659V78.309a1.659,1.659,0,0,1,1.659-1.659h34.6a1.659,1.659,0,0,1,1.659,1.659V87.07a1.659,1.659,0,0,1-1.659,1.659H961.843a1.659,1.659,0,0,0-1.66,1.668Z" transform="translate(-396.127 -75.749)" fill="#ff3f87"/>
      <path id="Pfad_19" data-name="Pfad 19" d="M1033.527,137.724l-11.946-21.661a1.66,1.66,0,0,0-1.452-.83h-.979a1.659,1.659,0,0,0-1.659,1.659v20.06a1.659,1.659,0,0,1-1.659,1.659h-11.764a1.658,1.658,0,0,1-1.658-1.659V78.317a1.658,1.658,0,0,1,1.658-1.659h23.652a27.8,27.8,0,0,1,12.444,2.555,17.615,17.615,0,0,1,7.715,7.01,19.591,19.591,0,0,1,2.556,9.955,18.436,18.436,0,0,1-3.485,11.025,18.783,18.783,0,0,1-8.345,6.263,1.66,1.66,0,0,0-.887,2.4l11.813,20.259a1.659,1.659,0,0,1-1.436,2.489h-13.157a1.659,1.659,0,0,1-1.411-.888Zm-16.019-34.843a1.659,1.659,0,0,0,1.659,1.659h7.7a8.528,8.528,0,0,0,6.213-2.033,7.63,7.63,0,0,0,2.074-5.733,7.406,7.406,0,0,0-2.074-5.558,8.562,8.562,0,0,0-6.213-2.024h-7.7a1.66,1.66,0,0,0-1.659,1.659Z" transform="translate(-405.891 -75.749)" fill="#ff3f87"/>
    </g>
    <g id="MoonFlame" transform="translate(-12.945 -0.006)">
      <g id="Moon" transform="translate(43.728)">
        <path id="Full_Moon" data-name="Full Moon" d="M155.616,150.776a80.725,80.725,0,0,1-22.638,9.618A78.2,78.2,0,0,0,33.55,62.57,81.455,81.455,0,0,1,170.395,23.823l.456.469a81.442,81.442,0,0,1,6.034,107.4,14.336,14.336,0,0,0-21.27,19.028Z" transform="translate(-33.55 0.039)" fill="#c6e2e7"/>
        <path id="Half_Moon" data-name="Half Moon" d="M170.851,24.344,113.715,81.467A78.2,78.2,0,0,0,33.55,62.57,81.455,81.455,0,0,1,170.395,23.823Z" transform="translate(-33.55 0.039)" fill="#a8d3d8"/>
        <circle id="Circle_2" data-name="Circle 2" cx="14" cy="14" r="14" transform="translate(111.703 53.507)" fill="#a8d3d8"/>
        <circle id="Circle_3" data-name="Circle 3" cx="23.5" cy="23.5" r="23.5" transform="translate(56.703 14.474)" fill="#8ebac5"/>
        <circle id="Circle_4" data-name="Circle 4" cx="9.5" cy="9.5" r="9.5" transform="translate(24.703 26.474)" fill="#8ebac5"/>
        <circle id="Circle_1" data-name="Circle 1" cx="5.5" cy="5.5" r="5.5" transform="translate(103.703 98.474)" fill="#a8d3d8"/>
      </g>
      <path id="Flame" d="M101.5,163.8s-2.607-7.377-5.33-17.269A41.966,41.966,0,0,1,88.1,157.849c-.56.56-1.134,1.121-1.733,1.655a57.344,57.344,0,0,1-10.283,7.82c-11.821,6.907-21.348,3.428-21.582,2.711s9.006-13.8,3.714-21.973c-4.379,4.314-11.13,10.674-18.441,15.04a57.722,57.722,0,0,1-24.006,7.363c-4.731.417-16.252-1.3-15.757-2.046,4.04-5.9,27.108-31.826,33.885-46.827,0,0-6.451-6.516-22.156-1.851h0c7.429-29.493,35.176-32.986,34.85-33.273-6.516-6.516-16.747-10.609-16.747-10.609.73-.8,1.473-1.59,2.242-2.359A57.344,57.344,0,1,1,101.5,163.8Z" transform="translate(0.002 17.403)" fill="#ff3f87"/>
    </g>
  </g>
</svg>
