<svg width="139" height="58" viewBox="0 0 139 58" fill="none" xmlns="http://www.w3.org/2000/svg">
<g clip-path="url(#clip0_1_2048)">
<path d="M69.8916 18.7616C71.3022 18.7616 72.3562 18.4687 73.053 17.8824C73.7499 17.2965 74.0983 16.4084 74.0983 15.2188C74.0983 14.0467 73.7539 13.1758 73.0659 12.6069C72.3776 12.0379 71.3195 11.7536 69.8916 11.7536H64.6785V18.7616H69.8916ZM76.9113 28.2265H74.5886L71.4917 22.3822C71.1131 21.6754 70.6699 21.1885 70.1626 20.921C69.6549 20.6539 68.9625 20.5201 68.0851 20.5201H64.6785V28.2265H62.588V9.99506H70.0722C72.0506 9.99506 73.5604 10.4347 74.6015 11.3139C75.6423 12.1932 76.1629 13.4862 76.1629 15.1929C76.1629 16.6068 75.7629 17.749 74.9628 18.6194C74.1628 19.4901 73.0229 20.0376 71.5433 20.2615C72.0079 20.3998 72.4163 20.6326 72.7692 20.9598C73.1216 21.2875 73.4443 21.7271 73.7369 22.2787L76.9113 28.2265Z" fill="white"/>
<path d="M86.7053 25.7062C87.3667 25.008 87.6987 24.1074 87.6987 23.0038V22.2538H87.2343C85.72 22.2538 84.5671 22.3185 83.7756 22.4478C82.9842 22.5771 82.4208 22.7928 82.0856 23.0943C81.7498 23.3961 81.5821 23.8402 81.5821 24.4261C81.5821 25.0984 81.8272 25.6544 82.3178 26.0941C82.8084 26.5337 83.4232 26.7535 84.1632 26.7535C85.1951 26.7535 86.0422 26.4044 86.7053 25.7062ZM88.563 16.5517C89.3455 17.3707 89.7371 18.6165 89.7371 20.2885V28.2276H87.6987V26.0812C87.3717 26.8226 86.8729 27.3959 86.2016 27.8008C85.5303 28.2062 84.756 28.4085 83.8787 28.4085C83.07 28.4085 82.3259 28.2445 81.6466 27.9173C80.9667 27.59 80.4293 27.1329 80.0337 26.5467C79.6377 25.9607 79.4401 25.3142 79.4401 24.6071C79.4401 23.6591 79.6808 22.9222 80.1626 22.396C80.6441 21.8704 81.4357 21.491 82.5369 21.2582C83.6375 21.0255 85.1697 20.9091 87.1304 20.9091H87.6987V20.0557C87.6987 19.0043 87.4829 18.2414 87.0536 17.767C86.6227 17.2931 85.9261 17.056 84.9629 17.056C83.5181 17.056 82.0807 17.5044 80.653 18.4007L79.9562 16.875C80.6099 16.4094 81.3969 16.0345 82.3178 15.75C83.2376 15.4655 84.128 15.3233 84.989 15.3233C86.5892 15.3233 87.7797 15.7329 88.563 16.5517Z" fill="white"/>
<path d="M95.699 27.6068C94.7865 27.0726 94.0858 26.3182 93.5952 25.344C93.1055 24.3702 92.8602 23.2279 92.8602 21.9175C92.8602 20.6076 93.1136 19.4567 93.6214 18.4653C94.1283 17.474 94.843 16.7027 95.7636 16.1507C96.6835 15.5991 97.7636 15.3231 99.0023 15.3231C99.8445 15.3231 100.671 15.4743 101.48 15.7758C102.288 16.0775 102.942 16.4784 103.441 16.9782L102.745 18.5298C101.557 17.5645 100.352 17.0816 99.1315 17.0816C97.8413 17.0816 96.8347 17.5043 96.1119 18.3488C95.3891 19.1937 95.0278 20.3833 95.0278 21.9175C95.0278 23.4348 95.3891 24.607 96.1119 25.4345C96.8347 26.262 97.8413 26.6758 99.1315 26.6758C100.352 26.6758 101.557 26.1934 102.745 25.2276L103.441 26.7792C102.907 27.2795 102.237 27.6758 101.428 27.9688C100.619 28.2617 99.7848 28.4084 98.9247 28.4084C97.6859 28.4084 96.6107 28.1414 95.699 27.6068Z" fill="white"/>
<path d="M108.333 17.9868C107.67 18.6765 107.279 19.6508 107.158 20.909H114.462C114.427 19.6333 114.109 18.655 113.507 17.9739C112.905 17.293 112.062 16.9523 110.978 16.9523C109.876 16.9523 108.995 17.2974 108.333 17.9868ZM116.294 22.2537H107.107C107.176 23.7193 107.571 24.8268 108.294 25.5767C109.016 26.3267 110.04 26.7016 111.365 26.7016C112.827 26.7016 114.169 26.2018 115.391 25.2017L116.088 26.7275C115.537 27.2447 114.832 27.6544 113.972 27.9559C113.111 28.2573 112.234 28.4084 111.339 28.4084C109.378 28.4084 107.834 27.831 106.707 26.6758C105.58 25.521 105.016 23.9262 105.016 21.8917C105.016 20.5986 105.266 19.4567 105.764 18.4652C106.264 17.474 106.965 16.7027 107.868 16.1507C108.772 15.5991 109.799 15.3231 110.952 15.3231C112.62 15.3231 113.929 15.8706 114.875 16.9653C115.821 18.0603 116.294 19.5643 116.294 21.4779V22.2537Z" fill="white"/>
<path d="M66.5365 51.5725C65.2631 50.8226 64.2869 49.7453 63.6074 48.34C62.9275 46.9351 62.588 45.2756 62.588 43.3619C62.588 41.4482 62.9275 39.7932 63.6074 38.3968C64.2869 37.0002 65.2631 35.9271 66.5365 35.1771C67.8096 34.4272 69.3065 34.0521 71.0271 34.0521C72.2828 34.0521 73.4356 34.2462 74.4854 34.634C75.5346 35.0219 76.4467 35.5954 77.2209 36.3537L76.4208 37.983C75.5433 37.2419 74.6828 36.7073 73.8401 36.3796C72.9969 36.0523 72.0679 35.8883 71.0529 35.8883C69.0569 35.8883 67.5127 36.5392 66.4204 37.8407C65.3276 39.1426 64.7816 40.9828 64.7816 43.3619C64.7816 45.7584 65.3276 47.6073 66.4204 48.9089C67.5127 50.2107 69.0569 50.8614 71.0529 50.8614C72.0679 50.8614 72.9969 50.6977 73.8401 50.37C74.6828 50.0426 75.5433 49.5081 76.4208 48.7666L77.2209 50.3958C76.4467 51.1547 75.5346 51.7276 74.4854 52.1155C73.4356 52.5035 72.2828 52.6974 71.0271 52.6974C69.3065 52.6974 67.8096 52.3224 66.5365 51.5725Z" fill="white"/>
<path d="M86.7053 49.9696C87.3667 49.2713 87.6987 48.3707 87.6987 47.2672V46.5172H87.2343C85.72 46.5172 84.5671 46.5818 83.7756 46.7112C82.9842 46.8404 82.4208 47.0563 82.0856 47.3577C81.7498 47.6595 81.5821 48.1035 81.5821 48.6895C81.5821 49.3618 81.8272 49.9178 82.3178 50.3575C82.8084 50.7971 83.4232 51.0169 84.1632 51.0169C85.1951 51.0169 86.0422 50.6678 86.7053 49.9696ZM88.563 40.815C89.3455 41.6341 89.7371 42.8797 89.7371 44.5518V52.4909H87.6987V50.3445C87.3717 51.086 86.8729 51.6593 86.2016 52.0642C85.5303 52.4694 84.756 52.6719 83.8787 52.6719C83.07 52.6719 82.3259 52.5079 81.6466 52.1806C80.9667 51.8533 80.4293 51.3964 80.0337 50.81C79.6377 50.2241 79.4401 49.5777 79.4401 48.8705C79.4401 47.9225 79.6808 47.1856 80.1626 46.6594C80.6441 46.1338 81.4357 45.7543 82.5369 45.5216C83.6375 45.2889 85.1697 45.1725 87.1304 45.1725H87.6987V44.3191C87.6987 43.2676 87.4829 42.5049 87.0536 42.0305C86.6227 41.5565 85.9261 41.3193 84.9629 41.3193C83.5181 41.3193 82.0807 41.7679 80.653 42.664L79.9562 41.1382C80.6099 40.6728 81.3969 40.2979 82.3178 40.0134C83.2376 39.7289 84.128 39.5867 84.989 39.5867C86.5892 39.5867 87.7797 39.9964 88.563 40.815Z" fill="white"/>
<path d="M101.996 49.6982C102.666 48.8707 103.002 47.6985 103.002 46.1812C103.002 44.6644 102.666 43.4788 101.996 42.6255C101.325 41.772 100.379 41.3453 99.157 41.3453C97.9346 41.3453 96.9927 41.759 96.3312 42.5866C95.6681 43.4142 95.3369 44.5952 95.3369 46.1295C95.3369 47.6641 95.6681 48.8493 96.3312 49.6853C96.9927 50.5217 97.9346 50.9396 99.157 50.9396C100.379 50.9396 101.325 50.5257 101.996 49.6982ZM102.486 40.4144C103.329 40.9663 103.983 41.7376 104.447 42.7288C104.912 43.7205 105.145 44.8712 105.145 46.1812C105.145 47.4915 104.912 48.6339 104.447 49.6077C103.983 50.5819 103.334 51.3363 102.499 51.8704C101.664 52.405 100.688 52.6721 99.5699 52.6721C98.5887 52.6721 97.7326 52.4567 97.0016 52.0256C96.2707 51.5948 95.7155 50.9827 95.3369 50.1896V57.1459H93.247V39.8971H95.3369V42.0694C95.7155 41.2766 96.2707 40.6645 97.0016 40.2334C97.7326 39.8026 98.5887 39.5869 99.5699 39.5869C100.67 39.5869 101.643 39.8628 102.486 40.4144Z" fill="white"/>
<path d="M108.267 39.8976H110.356V52.4915H108.267V39.8976ZM108.06 34.441H110.589V36.7943H108.06V34.441Z" fill="white"/>
<path d="M120.912 50.9135L120.808 52.5686C120.412 52.6372 119.982 52.672 119.518 52.672C118.004 52.672 116.864 52.2756 116.099 51.4824C115.332 50.6896 114.95 49.5861 114.95 48.1723V41.552H112.498V39.897H114.95V36.0697H117.041V39.897H120.602V41.552H117.041V48.0172C117.041 50 117.952 50.9912 119.776 50.9912C120.154 50.9912 120.533 50.9653 120.912 50.9135Z" fill="white"/>
<path d="M129.856 49.9696C130.518 49.2713 130.849 48.3707 130.849 47.2672V46.5172H130.385C128.87 46.5172 127.718 46.5818 126.927 46.7112C126.135 46.8404 125.572 47.0563 125.236 47.3577C124.901 47.6595 124.733 48.1035 124.733 48.6895C124.733 49.3618 124.978 49.9178 125.468 50.3575C125.959 50.7971 126.574 51.0169 127.314 51.0169C128.346 51.0169 129.193 50.6678 129.856 49.9696ZM131.714 40.815C132.497 41.6341 132.888 42.8797 132.888 44.5518V52.4909H130.849V50.3445C130.522 51.086 130.023 51.6593 129.353 52.0642C128.682 52.4694 127.907 52.6719 127.03 52.6719C126.221 52.6719 125.477 52.5079 124.798 52.1806C124.117 51.8533 123.58 51.3964 123.184 50.81C122.789 50.2241 122.591 49.5777 122.591 48.8705C122.591 47.9225 122.832 47.1856 123.314 46.6594C123.795 46.1338 124.587 45.7543 125.688 45.5216C126.789 45.2889 128.32 45.1725 130.282 45.1725H130.849V44.3191C130.849 43.2676 130.634 42.5049 130.204 42.0305C129.774 41.5565 129.077 41.3193 128.114 41.3193C126.668 41.3193 125.232 41.7679 123.804 42.664L123.107 41.1382C123.761 40.6728 124.548 40.2979 125.468 40.0134C126.389 39.7289 127.279 39.5867 128.139 39.5867C129.74 39.5867 130.931 39.9964 131.714 40.815Z" fill="white"/>
<path d="M136.708 34.2599H138.798V52.4914H136.708V34.2599Z" fill="white"/>
<path d="M10.8159 28.2448C10.5155 27.0793 10.3557 25.8571 10.3557 24.5975C10.3557 19.2995 13.1816 14.6636 17.4049 12.1188L22.0974 0.634399C10.1108 2.01555 0.802185 12.2163 0.802185 24.5975C0.802185 30.3262 2.79584 35.5878 6.12505 39.7254L10.8159 28.2448Z" fill="white"/>
<path d="M48.9525 24.5976C48.9525 11.7306 38.8992 1.2177 26.2344 0.512451L22.2407 10.2867C23.0959 10.1294 23.9771 10.0466 24.8776 10.0466C32.8975 10.0466 39.399 16.5614 39.399 24.5976C39.399 32.634 32.8975 39.1487 24.8776 39.1487C23.5268 39.1487 22.2195 38.9632 20.9787 38.6174L27.5208 22.6065H17.2069L3.09424 57.146H13.408L17.3431 47.515C19.568 48.2491 21.9357 48.6681 24.3941 48.7168L26.6379 57.146H36.5255L33.8246 46.9996C42.6902 43.441 48.9525 34.7526 48.9525 24.5976Z" fill="white"/>
</g>
<defs>
<clipPath id="clip0_1_2048">
<rect width="139" height="57.2353" fill="white" transform="translate(0.00012207)"/>
</clipPath>
</defs>
</svg>
