<svg width="131" height="52" viewBox="0 0 131 52" fill="none" xmlns="http://www.w3.org/2000/svg">
<g clip-path="url(#clip0_1_2031)">
<path d="M95.0987 2.37603C93.6841 5.3348 91.1967 10.6021 88.3844 16.4871C86.9861 19.4297 85.7993 21.9495 85.7512 22.0633C85.6861 22.2258 86.0272 22.2583 87.3442 22.2258L89.0348 22.1771L90.1727 19.706L91.3106 17.2187H95.8793H100.447L101.569 19.7385L102.691 22.2583H104.349C105.276 22.2583 106.024 22.2258 106.024 22.1934C106.024 22.1608 105.682 21.413 105.276 20.5351C104.479 18.8444 101.341 12.0002 98.3823 5.51363C97.4234 3.41648 96.4971 1.41686 96.3343 1.07547L96.0088 0.457703L95.0987 2.37603ZM97.6025 10.7971L99.1629 14.2924H95.9282C94.1554 14.2924 92.6927 14.2599 92.6927 14.2437C92.6927 14.2111 93.1477 13.2032 93.7167 12.0002C94.2856 10.7971 95.0011 9.25274 95.3104 8.56998C95.6189 7.87088 95.8956 7.31816 95.9444 7.3019C95.9925 7.3019 96.7405 8.8788 97.6025 10.7971Z" fill="white"/>
<path d="M12.9858 1.46527C12.6607 1.54655 12.0104 1.79041 11.5714 2.01801C9.62062 3.00968 8.56386 4.60288 8.58013 6.56997C8.59641 9.3174 10.0595 10.7806 14.6928 12.6663C17.1638 13.6743 18.0255 14.7472 17.8629 16.6005C17.749 17.8198 17.2126 18.6652 16.1722 19.2829C15.5544 19.6406 15.213 19.7219 14.3351 19.7219C12.4493 19.7219 11.2788 18.7465 10.8886 16.8281C10.7423 16.1291 10.6285 15.934 10.4334 15.9828C10.3034 16.0316 9.58806 16.1778 8.87275 16.3405L7.55594 16.6168L7.70226 17.2834C7.92986 18.4051 8.92151 20.2259 9.63682 20.8762C11.6202 22.6644 14.8391 23.0871 17.3589 21.9003C18.5457 21.3476 19.9112 19.982 20.4315 18.8278C21.0168 17.5272 21.1468 15.7227 20.7729 14.4221C20.1551 12.2924 18.8546 11.1707 15.3105 9.74008C12.5143 8.60209 11.734 7.95182 11.734 6.71629C11.734 5.10684 12.8883 4.14768 14.8228 4.14768C16.0909 4.14768 16.6761 4.42404 17.4564 5.36695L18.0255 6.03349L19.1309 5.41572C19.7487 5.05807 20.2689 4.70041 20.3015 4.60287C20.399 4.29399 19.1309 2.83086 18.3018 2.31063C16.8549 1.38398 14.7416 1.05885 12.9858 1.46527Z" fill="white"/>
<path d="M34.9975 1.44873C32.4776 1.98522 30.9983 2.7818 29.1937 4.60259C27.9744 5.82187 27.6005 6.32583 27.0478 7.46382C26.0723 9.49593 25.8122 11.4956 26.2024 13.9341C26.5601 16.1126 27.3729 17.592 29.1937 19.4127C32.0712 22.2577 36.4931 23.2981 40.4273 22.0301C43.7275 20.9734 46.4587 18.3723 47.4991 15.2672C47.9543 13.9341 48.1006 11.5119 47.8405 9.96737C47.3365 7.07366 44.8492 3.806 42.0855 2.47292C41.5327 2.19655 40.6712 1.85515 40.1834 1.70884C39.1268 1.3837 36.0379 1.23739 34.9975 1.44873ZM38.3952 4.21242C41.2889 4.66762 43.9225 7.02489 44.6378 9.8211C45.3694 12.6173 44.6054 15.4298 42.5569 17.4619C40.8012 19.2177 38.3301 20.0468 35.9566 19.6728C30.608 18.8437 27.6005 13.3163 29.8765 8.50428C30.6568 6.84606 32.5101 5.17159 34.1846 4.61885C35.7778 4.08237 36.8833 3.98483 38.3952 4.21242Z" fill="white"/>
<path d="M61.5609 1.51417C59.1061 2.08316 57.4154 3.05859 55.7246 4.87937C54.0177 6.71642 53.3348 8.16327 53.0422 10.5531C52.8472 12.0813 53.0422 14.2272 53.5137 15.5602C55.2044 20.3723 60.748 23.3961 66.0316 22.3557C67.4622 22.0793 69.9007 21.0063 70.8112 20.2422L71.2663 19.8683L70.5998 18.4377L69.9333 17.0071L69.1204 17.7711C66.2104 20.5024 61.3008 20.356 58.3258 17.4785C55.9523 15.1701 55.3182 11.4797 56.7976 8.43969C58.976 3.95272 65.1212 2.70093 69.0716 5.93607L69.7545 6.50507L70.4209 5.18825L71.0875 3.87144L70.7136 3.54629C70.0308 2.96104 68.4051 2.13193 67.2509 1.77428C65.7877 1.31908 62.9753 1.18903 61.5609 1.51417Z" fill="white"/>
<path d="M77.0379 1.72574C76.9729 1.7745 76.9241 6.42401 76.9241 12.0489V22.2583H78.4686H80.0127V11.9351V1.61194H78.5825C77.7857 1.61194 77.0867 1.66071 77.0379 1.72574Z" fill="white"/>
<path d="M111.714 11.9351V22.2583H117.648H123.582V20.7952V19.332H119.111H114.64V10.472V1.61194H113.178H111.714V11.9351Z" fill="white"/>
<path d="M32.9116 29.9243C32.711 30.3573 30.3663 35.3002 27.7153 40.9085C25.0643 46.5168 22.8674 51.1851 22.8358 51.2908C22.7829 51.4597 22.9097 51.4703 24.4623 51.4703H26.1416L27.314 48.9566L28.4757 46.4534L33.1228 46.4217L37.7595 46.4007L38.8685 48.9355L39.9669 51.4703H41.6885C42.6284 51.4703 43.3994 51.4386 43.3994 51.4069C43.3994 51.3752 41.1181 46.3478 38.3298 40.2431L33.2707 29.1428L32.9116 29.9243ZM34.8445 39.7996C35.6683 41.6585 36.3759 43.2427 36.397 43.306C36.4392 43.4117 35.7528 43.4434 33.1651 43.4434C31.3591 43.4434 29.8804 43.4222 29.8804 43.3905C29.8804 43.3588 30.5035 41.9964 31.264 40.3593C32.035 38.7117 32.7743 37.1169 32.9116 36.8C33.0595 36.4726 33.2073 36.272 33.2602 36.3247C33.3025 36.3775 34.0206 37.9407 34.8445 39.7996Z" fill="white"/>
<path d="M102.767 29.6918C102.112 31.0332 92.5122 51.3751 92.5122 51.4174C92.5122 51.449 93.2726 51.4596 94.202 51.449L95.8919 51.4174L97.0538 48.9354L98.2049 46.4533L102.841 46.4216L107.489 46.4006L108.355 48.3756C108.841 49.474 109.337 50.6146 109.474 50.9104L109.717 51.4702H111.428C113.002 51.4702 113.129 51.4596 113.076 51.28C113.033 51.1322 103.084 29.2799 103.032 29.2166C103.021 29.1954 102.895 29.4173 102.767 29.6918ZM104.521 39.6727C105.345 41.5422 106.052 43.1581 106.094 43.2531C106.158 43.4327 105.957 43.4433 102.863 43.4433C101.014 43.4433 99.5885 43.401 99.6095 43.3482C99.7994 42.8412 102.915 36.2613 102.957 36.2613C102.989 36.2613 103.697 37.7927 104.521 39.6727Z" fill="white"/>
<path d="M9.81351 30.1369C6.19086 30.6439 2.91673 33.0203 1.2691 36.3261C-0.325724 39.5052 -0.0405577 43.8778 1.96617 46.8984C3.31807 48.9474 6.02188 50.8696 8.38771 51.4717C10.8486 52.1053 13.5418 51.9152 15.8759 50.9435C16.7209 50.595 18.5375 49.4332 18.7276 49.1269C18.8016 49.0002 18.7276 48.7467 18.4214 48.0708C18.1995 47.5954 17.9144 46.9512 17.7771 46.6555L17.5448 46.1169L16.8582 46.7611C15.1683 48.377 12.9398 49.1164 10.6163 48.8523C8.63064 48.6305 7.06749 47.8806 5.65222 46.4548C4.7756 45.5782 4.21582 44.6699 3.82504 43.4975C3.56099 42.716 3.53987 42.5153 3.52931 40.9099C3.52931 39.2622 3.55043 39.1144 3.82504 38.3223C4.2475 37.1393 4.9129 36.1149 5.88458 35.1854C6.82457 34.2877 7.75402 33.7279 8.94744 33.3265C9.67624 33.0837 9.92971 33.052 11.345 33.0414C12.718 33.0414 13.0349 33.0731 13.7213 33.2843C15.0099 33.6962 15.9604 34.2348 16.8688 35.0798L17.3335 35.5128L17.7771 34.5412C18.0305 34.0025 18.3369 33.3688 18.4636 33.1259L18.6854 32.6718L17.9778 32.1437C16.9532 31.3832 15.5274 30.7072 14.3022 30.401C13.1088 30.0947 11.007 29.9679 9.81351 30.1369Z" fill="white"/>
<path d="M49.1036 40.9508V51.4703H50.6879H52.2721V47.2034V42.947L53.8881 42.8836C55.7575 42.8097 56.5285 42.6407 57.7537 42.0598C59.2534 41.3311 60.373 40.0108 60.7743 38.4688C61.1756 36.9691 61.0278 35.1947 60.4047 33.885C59.9188 32.8711 58.7993 31.7199 57.8276 31.2446C56.5707 30.6215 55.9898 30.5475 52.3566 30.4841L49.1036 30.4313V40.9508ZM54.7858 33.4098C56.2433 33.6527 57.215 34.2441 57.6692 35.1735C57.8699 35.5855 57.9121 35.8495 57.9121 36.631C57.9121 37.719 57.7114 38.2999 57.1305 38.8808C56.4017 39.62 55.4512 39.9264 53.5712 40.0214L52.2721 40.0953V36.705V33.3041H53.2015C53.7085 33.3041 54.4161 33.357 54.7858 33.4098Z" fill="white"/>
<path d="M67.2696 40.9614V51.4703H68.8538H70.4381V40.9614V30.4525H68.8538H67.2696V40.9614Z" fill="white"/>
<path d="M76.2481 31.9311V33.4098H79.4168H82.5848V42.44V51.4703H84.1692H85.7536V42.44V33.4098H88.6371H91.5207L92.1331 32.0578C92.471 31.3185 92.7772 30.6531 92.7981 30.5792C92.8408 30.4841 91.1509 30.4525 84.5498 30.4525H76.2481V31.9311Z" fill="white"/>
<path d="M118.81 40.9614V51.4703H124.935H131.061V49.9917V48.5131H126.519H121.978V39.4828V30.4525H120.393H118.81V40.9614Z" fill="white"/>
</g>
<defs>
<clipPath id="clip0_1_2031">
<rect width="131" height="51.9349" fill="white" transform="translate(-0.000244141)"/>
</clipPath>
</defs>
</svg>
