<svg width="170" height="41" viewBox="0 0 170 41" fill="none" xmlns="http://www.w3.org/2000/svg">
<g clip-path="url(#clip0_1_2085)">
<path d="M110.209 15.8328L110.208 15.833C110.134 15.9127 110.028 15.9581 109.919 15.9581H100.566H98.3877C98.168 15.9581 97.9912 15.7806 97.9912 15.5618V2.60707C97.9912 2.38808 98.168 2.21069 98.3877 2.21069H100.116C100.335 2.21069 100.512 2.388 100.512 2.60707V13.266C100.512 13.5455 100.739 13.772 101.018 13.772H111.226C111.573 13.772 111.752 14.1864 111.515 14.4394L111.555 14.4769L111.515 14.4394L110.209 15.8328Z" fill="white" stroke="white" stroke-width="0.109641"/>
<path d="M65.0951 10.3693H65.0966C65.101 10.3693 65.1052 10.3698 65.1094 10.3708H70.81C71.6426 10.3708 72.3176 11.0458 72.3176 11.8784C72.3176 12.711 71.6426 13.3859 70.81 13.3859H66.9277H63.9205C63.826 13.3859 63.7347 13.4197 63.6628 13.4811L61.5826 15.2608C61.3029 15.5001 61.4721 15.9583 61.8403 15.9583H70.4403L65.0951 10.3693ZM65.0951 10.3693C65.0587 10.3703 65.0221 10.3708 64.9854 10.3708C62.7277 10.3708 60.8977 8.54405 60.8977 6.2908C60.8977 4.03765 62.7277 2.21091 64.9854 2.21091C65.0221 2.21091 65.0587 2.21143 65.0951 2.21238V2.2124H65.0966C65.101 2.2124 65.1053 2.21189 65.1094 2.21091H73.7944C74.1554 2.21091 74.3284 2.6541 74.063 2.89875L72.1313 4.6784C72.0582 4.74581 71.9622 4.78332 71.8628 4.78332H64.9826C64.15 4.78332 63.475 5.45827 63.475 6.2908C63.475 7.12344 64.15 7.79838 64.9826 7.79838H71.1111C71.1205 7.80608 71.1322 7.81104 71.1448 7.81217L71.1452 7.81219C73.2448 7.98356 74.8952 9.7387 74.8952 11.8784C74.8952 14.1315 73.065 15.9583 70.8074 15.9583C70.6982 15.9583 70.59 15.954 70.4828 15.9457L65.0951 10.3693ZM65.0425 10.4248C65.0425 10.4249 65.0425 10.4251 65.0425 10.4252V10.4248ZM65.0425 2.15649C65.0425 2.15661 65.0425 2.15672 65.0425 2.15683V2.15649Z" fill="white" stroke="white" stroke-width="0.109641"/>
<path d="M81.7491 15.9561L81.749 15.9565C81.7514 15.9569 81.7537 15.9575 81.756 15.9582H91.1309C91.1333 15.9575 91.1357 15.9569 91.1379 15.9565L91.1447 15.9554V15.9559C92.4853 15.8981 93.5541 14.795 93.5541 13.4428C93.5541 13.4065 93.5534 13.3704 93.5519 13.3347L93.5518 13.3323C93.5518 13.3267 93.5526 13.3212 93.5541 13.3162V4.62973L81.7491 15.9561ZM81.7491 15.9561L81.7424 15.9559C80.4018 15.8981 79.3328 14.795 79.3328 13.4428C79.3328 13.4073 79.3336 13.3719 79.3351 13.3366L81.7491 15.9561ZM83.501 4.56136C83.5019 4.56131 83.5029 4.56124 83.5038 4.56123L83.5015 4.56133C83.5013 4.56134 83.5011 4.56135 83.501 4.56136ZM83.501 4.56136C83.4973 4.56153 83.4935 4.56169 83.4898 4.56189L83.501 4.56136ZM83.501 4.56136C83.4836 4.56231 83.471 4.57105 83.4639 4.57892C83.4574 4.58607 83.4506 4.59756 83.4498 4.61261C83.4504 4.60046 83.455 4.58899 83.4625 4.57983C83.4686 4.57257 83.4778 4.56537 83.4898 4.56189L83.501 4.56136ZM83.4898 4.56189C82.6377 4.60479 81.9548 5.29117 81.9124 6.14675C81.9111 6.15152 81.9104 6.15657 81.9104 6.16179V11.6433C81.9104 11.6466 81.9107 11.65 81.9113 11.6535C81.9107 11.6736 81.9104 11.6939 81.9104 11.7143C81.9104 12.6088 82.6097 13.3394 83.4898 13.3838C83.4947 13.3852 83.4999 13.3859 83.5054 13.3859H89.3818C89.3871 13.3859 89.3923 13.3852 89.3973 13.3838C90.2772 13.3394 90.9768 12.6088 90.9768 11.7143C90.9768 11.6941 90.9764 11.6741 90.9757 11.6543C90.9764 11.6507 90.9768 11.647 90.9768 11.6433V6.16179C90.9768 6.15646 90.9761 6.15129 90.9746 6.14639C90.932 5.29097 90.2491 4.60478 89.3973 4.56189C89.3925 4.5605 89.3873 4.55969 89.3818 4.55969H83.5054C83.4997 4.55969 83.4946 4.5605 83.4898 4.56189ZM79.2792 13.3859C79.279 13.3859 79.2788 13.3859 79.2787 13.3859H79.2792ZM81.9117 11.6442C81.9117 11.6439 81.9117 11.6436 81.9117 11.6433C81.9117 11.6426 81.9118 11.6418 81.9118 11.641L81.9117 11.6425C81.9117 11.6428 81.9117 11.643 81.9117 11.6433C81.9117 11.6436 81.9117 11.6439 81.9117 11.6442ZM90.9212 6.10624C90.9297 6.10624 90.9372 6.10801 90.9437 6.11093C90.9368 6.10792 90.9292 6.10624 90.9212 6.10624Z" fill="white" stroke="white" stroke-width="0.109641"/>
<path d="M128.376 2.15919C128.376 2.16048 128.376 2.16174 128.376 2.16297V2.15919ZM128.376 2.15919C128.376 2.15863 128.376 2.15805 128.376 2.15747V2.15793V2.15909V2.15919ZM116.619 4.83709V4.8355C116.618 4.79872 116.617 4.76263 116.617 4.72657C116.617 3.33745 117.746 2.21113 119.137 2.21113C119.173 2.21113 119.21 2.21186 119.245 2.2134V2.21346H119.247C119.253 2.21346 119.258 2.21274 119.264 2.21113H128.415C128.421 2.21278 128.426 2.21334 128.429 2.21351V2.21352C129.769 2.27139 130.838 3.37448 130.838 4.72657C130.838 4.76264 130.837 4.79874 130.836 4.8355V4.83709C130.836 4.83638 130.836 4.83965 130.837 4.84321C130.837 4.84524 130.837 4.84857 130.838 4.85264V15.5622C130.838 15.7811 130.662 15.9585 130.442 15.9585H128.658C128.438 15.9585 128.261 15.781 128.261 15.5622V11.1005C128.261 10.8211 128.034 10.5945 127.756 10.5945H119.7C119.42 10.5945 119.195 10.8211 119.195 11.1005V15.5622C119.195 15.781 119.018 15.9585 118.798 15.9585H117.014C116.794 15.9585 116.617 15.7811 116.617 15.5622V4.85267C116.618 4.84884 116.619 4.84566 116.619 4.84364V4.83879V4.83757V4.83709ZM116.564 4.78355C116.564 4.78354 116.564 4.78354 116.564 4.78354V4.78355ZM130.838 4.83952V4.84002C130.838 4.83942 130.838 4.83918 130.838 4.83952ZM116.617 4.83952C116.617 4.83918 116.617 4.83942 116.617 4.84003V4.83952ZM119.195 5.95586V8.18671C119.195 8.466 119.42 8.69262 119.7 8.69262H127.756C128.034 8.69262 128.261 8.466 128.261 8.18671V5.95586C128.261 5.06136 127.534 4.33647 126.638 4.33647H120.817C119.921 4.33647 119.195 5.06136 119.195 5.95586Z" fill="white" stroke="white" stroke-width="0.109641"/>
<path d="M153.974 4.88481L153.946 4.83912L153.974 4.88479C153.974 4.8848 153.974 4.8848 153.974 4.88481ZM154 15.5618V4.85188C154.001 4.84749 154.002 4.8424 154.002 4.83669V4.83352C154 4.7987 154 4.76341 154 4.72616C154 3.33705 155.127 2.21073 156.519 2.21073C156.556 2.21073 156.592 2.21145 156.627 2.213V2.21305H156.63C156.633 2.21305 156.639 2.21273 156.645 2.21073H165.797C165.802 2.21238 165.808 2.21294 165.811 2.2131V2.21311C167.151 2.27099 168.22 3.37408 168.22 4.72616C168.22 4.76222 168.219 4.79831 168.218 4.8351V4.83669V4.83717V4.83839V4.84324C168.218 4.84526 168.219 4.84844 168.22 4.85227V15.5618C168.22 15.7806 168.042 15.9581 167.824 15.9581H166.039C165.82 15.9581 165.643 15.7806 165.643 15.5618V11.1001C165.643 10.8206 165.417 10.5941 165.136 10.5941H157.082C156.803 10.5941 156.575 10.8205 156.575 11.1001V15.5618C156.575 15.7808 156.399 15.9581 156.181 15.9581H154.395C154.176 15.9581 154 15.7808 154 15.5618ZM165.757 2.15879L165.758 2.1626C165.757 2.16136 165.757 2.16009 165.757 2.15879ZM156.575 2.15707C156.575 2.15743 156.575 2.15716 156.575 2.15649C156.575 2.15669 156.575 2.15687 156.575 2.15707ZM168.22 4.83912V4.83962C168.22 4.83902 168.22 4.83878 168.22 4.83912ZM154 4.83963V4.83912C154 4.83878 154 4.83902 154 4.83963ZM156.576 5.95545V8.18631C156.576 8.4656 156.803 8.69222 157.082 8.69222H165.136C165.417 8.69222 165.643 8.46568 165.643 8.18631V5.95545C165.643 5.06096 164.917 4.33607 164.021 4.33607H158.199C157.303 4.33607 156.576 5.06096 156.576 5.95545Z" fill="white" stroke="white" stroke-width="0.109641"/>
<path d="M138.774 6.60174V6.60177L146.934 15.9478C146.938 15.9511 146.94 15.9546 146.942 15.9581H149.135C149.353 15.9581 149.531 15.7805 149.531 15.5618V2.60707C149.531 2.38816 149.353 2.21069 149.135 2.21069H147.35C147.131 2.21069 146.953 2.38816 146.953 2.60707V11.4343C146.953 11.9045 146.367 12.1209 146.063 11.7627L138.774 6.60174ZM138.774 6.60174C138.466 6.24966 137.887 6.46703 137.887 6.93453V15.5618C137.887 15.7805 137.71 15.9581 137.491 15.9581H135.705C135.487 15.9581 135.309 15.7807 135.309 15.5618V2.60707C135.309 2.388 135.487 2.21069 135.705 2.21069H137.734C137.85 2.21069 137.96 2.26148 138.035 2.34986C138.035 2.34987 138.035 2.34987 138.035 2.34988L146.063 11.7626L138.774 6.60174Z" fill="white" stroke="white" stroke-width="0.109641"/>
<path d="M63.4326 30.601V39.4022H60.8977V20.5848H68.1133V22.3679H63.4874H63.4326V22.4228V28.7317V28.7866H63.4874H67.0602V30.5462H63.4874H63.4326V30.601Z" fill="white" stroke="white" stroke-width="0.109641"/>
<path d="M71.7928 21.1387L71.7931 21.1385C72.546 20.663 73.5565 20.4226 74.8297 20.4226C76.1028 20.4226 77.1054 20.663 77.8425 21.1382C78.5807 21.6144 79.1117 22.2898 79.4355 23.1674L79.4358 23.1683C79.7759 24.0482 79.947 25.1083 79.947 26.3497V33.5466C79.947 34.7723 79.776 35.8403 79.4355 36.7521L79.4353 36.7528C79.1113 37.6617 78.5799 38.3685 77.8414 38.8754C77.1046 39.3658 76.1024 39.6138 74.8297 39.6138C73.5569 39.6138 72.5465 39.3658 71.7938 38.8749C71.0401 38.3835 70.5012 37.6849 70.1773 36.7764C69.8522 35.8488 69.689 34.7648 69.689 33.5232V26.3497C69.689 25.1082 69.8522 24.0478 70.177 23.1677C70.5164 22.2744 71.0551 21.5991 71.7928 21.1387ZM76.4548 37.2117L76.456 37.2107C76.8253 36.9062 77.0727 36.4902 77.1999 35.9663L77.2 35.9659C77.326 35.4312 77.3887 34.8115 77.3887 34.1074V25.8121C77.3887 25.1084 77.326 24.5039 77.1998 23.9998C77.0726 23.4762 76.825 23.0748 76.4542 22.801C76.0818 22.5103 75.5375 22.3693 74.8297 22.3693C74.1214 22.3693 73.5698 22.5105 73.1821 22.8007C72.8113 23.0745 72.5634 23.476 72.4361 24C72.3099 24.5039 72.2473 25.1084 72.2473 25.8121V34.1074C72.2473 34.8115 72.31 35.4312 72.436 35.9659L72.4361 35.9663C72.5633 36.4902 72.8108 36.9062 73.18 37.2107H73.1799L73.1819 37.2123C73.5696 37.5026 74.1214 37.6438 74.8297 37.6438C75.5378 37.6438 76.0824 37.5027 76.4548 37.2117Z" fill="white" stroke="white" stroke-width="0.109641"/>
<path d="M82.4913 33.0779V20.5848H84.9092V33.1947C84.9092 34.0072 84.9639 34.7501 85.0738 35.4233C85.1843 36.1008 85.4217 36.6413 85.7896 37.0407L85.7905 37.0415C86.1785 37.445 86.7489 37.6424 87.4915 37.6424C88.2493 37.6424 88.8207 37.4453 89.1936 37.0406C89.5615 36.6413 89.7989 36.1008 89.9094 35.4233C90.0192 34.7501 90.0739 34.0072 90.0739 33.1947V20.5848H92.4684V33.0779C92.4684 34.3984 92.3361 35.5541 92.0725 36.5453C91.81 37.5162 91.3173 38.2684 90.5948 38.8055L90.5944 38.8058C89.8901 39.3409 88.8585 39.6125 87.4915 39.6125C86.1248 39.6125 85.085 39.3409 84.3649 38.8055C83.6426 38.2684 83.1498 37.5162 82.8874 36.5453C82.6236 35.554 82.4913 34.3984 82.4913 33.0779Z" fill="white" stroke="white" stroke-width="0.109641"/>
<path d="M102.55 33.1012V20.5848H104.64V39.4022H103.045L97.6071 26.5138L97.5018 26.5352V39.4022H95.3647V20.5848H97.0759L102.445 33.1228L102.55 33.1012Z" fill="white" stroke="white" stroke-width="0.109641"/>
<path d="M112.003 39.4022H107.728V20.5848H111.792C113.191 20.5848 114.289 20.8023 115.089 21.2326L115.09 21.2331C115.905 21.6478 116.481 22.2764 116.819 23.1207H116.818L116.819 23.1216C117.175 23.9696 117.353 25.0288 117.353 26.3016V33.2649C117.353 34.6 117.175 35.7221 116.818 36.6329V36.6338C116.48 37.542 115.918 38.2328 115.133 38.7091C114.364 39.1694 113.323 39.4022 112.003 39.4022ZM110.262 37.5643V37.6192H110.317H111.815C112.787 37.6192 113.491 37.4318 113.911 37.0437C114.33 36.6586 114.576 36.0998 114.655 35.3743C114.748 34.6549 114.796 33.788 114.796 32.7741V26.6286C114.796 25.6455 114.733 24.8469 114.607 24.2342C114.48 23.616 114.199 23.1579 113.765 22.8678C113.329 22.5783 112.654 22.4379 111.746 22.4379H110.317H110.262V22.4928V37.5643Z" fill="white" stroke="white" stroke-width="0.109641"/>
<path d="M126.293 34.6803L126.285 34.6353H126.24H122.379H122.333L122.324 34.6799L121.42 39.4022H119.053L123.055 20.5848H125.517L129.542 39.4022H127.152L126.293 34.6803ZM122.676 32.7875L122.665 32.8522H122.73H125.889H125.955L125.943 32.7873L124.351 24.2585L124.243 24.2587L122.676 32.7875Z" fill="white" stroke="white" stroke-width="0.109641"/>
<path d="M135.451 22.4928V39.4022H132.916V22.4928V22.4379H132.861H129.709V20.5848H138.563V22.4379H135.505H135.451V22.4928Z" fill="white" stroke="white" stroke-width="0.109641"/>
<path d="M140.641 39.4022V20.5848H143.129V39.4022H140.641Z" fill="white" stroke="white" stroke-width="0.109641"/>
<path d="M148.059 38.8749C147.304 38.3835 146.765 37.6848 146.442 36.7762C146.116 35.8487 145.953 34.7647 145.953 33.5232V26.3497C145.953 25.1081 146.116 24.0478 146.441 23.1678C146.78 22.2744 147.319 21.5991 148.057 21.1387V21.1385C148.81 20.663 149.82 20.4226 151.094 20.4226C152.367 20.4226 153.369 20.663 154.106 21.1383C154.845 21.6144 155.376 22.2898 155.7 23.1674V23.1683C156.04 24.0482 156.211 25.1083 156.211 26.3497V33.5466C156.211 34.7723 156.04 35.8403 155.7 36.752L155.699 36.7528C155.375 37.6617 154.844 38.3685 154.105 38.8754C153.368 39.3658 152.367 39.6138 151.094 39.6138C149.822 39.6138 148.81 39.3658 148.059 38.8749ZM152.719 37.2117L152.72 37.2107C153.088 36.9062 153.337 36.4902 153.463 35.9662V35.966C153.589 35.4312 153.653 34.8115 153.653 34.1074V25.8121C153.653 25.1084 153.589 24.5039 153.463 24C153.337 23.4761 153.088 23.0747 152.718 22.801C152.346 22.5103 151.802 22.3693 151.094 22.3693C150.385 22.3693 149.834 22.5105 149.446 22.8007C149.075 23.0745 148.827 23.4761 148.7 24C148.574 24.5039 148.512 25.1083 148.512 25.8121V34.1074C148.512 34.8115 148.574 35.4312 148.699 35.9659L148.7 35.9663C148.827 36.4902 149.074 36.9062 149.444 37.2107V37.2108L149.446 37.2123C149.833 37.5026 150.385 37.6438 151.094 37.6438C151.802 37.6438 152.346 37.5027 152.719 37.2117Z" fill="white" stroke="white" stroke-width="0.109641"/>
<path d="M166.106 33.1012V20.5848H168.197V39.4022H166.603L161.164 26.5138L161.059 26.5352V39.4022H158.922V20.5848H160.633L166.001 33.1228L166.106 33.1012Z" fill="white" stroke="white" stroke-width="0.109641"/>
<path d="M9.83254 30.7659C10.1263 30.4723 10.5244 30.3076 10.9396 30.3076H49.2484C49.9463 30.3076 50.2957 31.1515 49.802 31.6447L42.2323 39.2085C41.9386 39.502 41.5404 39.6669 41.1252 39.6669H2.81635C2.11848 39.6669 1.76911 38.8229 2.2628 38.3297L9.83254 30.7659Z" stroke="white" stroke-width="2.19282"/>
<path d="M9.83254 2.50847C10.1263 2.21505 10.5244 2.05017 10.9396 2.05017H49.2484C49.9463 2.05017 50.2956 2.89407 49.802 3.38733L42.2323 10.9511C41.9386 11.2446 41.5404 11.4094 41.1252 11.4094H2.81636C2.11848 11.4094 1.76912 10.5655 2.2628 10.0723L9.83254 2.50847Z" stroke="white" stroke-width="2.19282"/>
<path d="M42.2323 16.5482C41.9386 16.2548 41.5404 16.09 41.1252 16.09H2.81635C2.11848 16.09 1.76911 16.9338 2.2628 17.4271L9.83254 24.9909C10.1263 25.2844 10.5244 25.4492 10.9396 25.4492H49.2484C49.9463 25.4492 50.2957 24.6053 49.802 24.112L42.2323 16.5482Z" stroke="white" stroke-width="2.19282"/>
</g>
<defs>
<clipPath id="clip0_1_2085">
<rect width="169.125" height="40.9999" fill="white" transform="translate(0.000183105)"/>
</clipPath>
</defs>
</svg>
