<svg width="172" height="33" viewBox="0 0 172 33" fill="none" xmlns="http://www.w3.org/2000/svg">
<g clip-path="url(#clip0_225_15243)">
<path d="M1.92544 2.51053L0 0.5672H8.33337L6.41011 2.51053H1.92544Z" fill="#FFFF8B"/>
<path d="M18.6706 2.51053L16.7451 0.5672H25.0785L23.1662 2.51053H18.6706Z" fill="#FFFF8B"/>
<path d="M18.7147 19.7214V19.2531C18.7147 19.0926 18.6994 18.93 18.6841 18.7541V2.51053L16.7608 0.5672V19.3081C16.7608 20.2622 16.7914 21.2866 16.516 22.2077L16.4985 22.256C16.4789 22.322 16.4614 22.3836 16.4374 22.4451C16.1811 23.1894 15.7138 23.842 15.0933 24.3225L16.2144 25.8987C17.1526 25.183 17.8591 24.2039 18.2448 23.0848C18.2776 22.9991 18.306 22.9156 18.3366 22.832C18.3353 22.8199 18.3367 22.8077 18.3409 22.7962C18.3451 22.7848 18.3518 22.7745 18.3606 22.7661C18.3868 22.6847 18.4152 22.599 18.4415 22.5155C18.5362 22.2104 18.6093 21.8989 18.66 21.5834C18.7328 20.9655 18.7511 20.3424 18.7147 19.7214V19.7214Z" fill="#00A69B"/>
<path d="M23.1666 2.51084V17.4596C23.1666 23.0346 22.6617 25.0944 21.0882 27.1323C20.4019 27.9641 19.5541 28.6463 18.5967 29.1372C18.4939 29.1943 18.3781 29.2427 18.2754 29.2954L19.4578 31.0321C19.5801 30.9618 19.7091 30.8936 19.8293 30.8123C20.8875 30.148 21.8248 29.3063 22.6005 28.3238C24.5303 25.8067 25.0876 23.3753 25.0898 17.4925V0.565308L23.1666 2.51084Z" fill="#FFAD8D"/>
<path d="M23.1661 2.51062V17.4945C23.1661 23.0739 22.6613 25.1294 21.0877 27.1672C19.2235 29.5217 15.484 30.6164 12.5489 30.8187C8.47291 30.8187 5.3367 29.2798 3.56206 26.5451C2.86706 25.4899 2.48897 23.6015 2.09995 22.2803C1.99723 21.5285 2.01471 19.8468 1.93604 17.4989V2.51062H6.41634V18.7652C6.41634 21.2735 6.45131 22.1572 6.92775 23.4191C7.40112 24.5229 8.18548 25.4632 9.18402 26.1238C10.1826 26.7844 11.3516 27.1364 12.5467 27.1365C13.798 27.1473 15.021 26.7618 16.0424 26.0347C17.0638 25.3075 17.8319 24.2755 18.2378 23.0849C18.629 22.0253 18.8432 21.2471 18.6749 18.7696V2.52161L23.1661 2.51062Z" fill="url(#paint0_linear_225_15243)"/>
<path d="M3.56209 26.4967C2.8671 25.4393 2.489 23.5553 2.09998 22.2341C1.99726 21.4823 2.01475 19.8006 1.93607 17.4527V2.504L0.0106308 0.560669V17.4879C-0.0225567 19.1616 0.0394672 20.8358 0.196399 22.5023C0.41111 24.2945 1.00746 26.0191 1.94481 27.5585C2.42999 28.3005 3.00561 28.9785 3.65825 29.5766L5.01983 28.2026C4.46178 27.7006 3.97168 27.1271 3.56209 26.4967V26.4967Z" fill="#00A69B"/>
<path d="M19.4512 31.0186L18.2689 29.282C16.4705 30.137 14.5278 30.6427 12.5428 30.7724C9.42192 30.7724 6.86049 29.8557 5.02466 28.2114L3.66309 29.5853C5.87046 31.6188 8.93455 32.7158 12.5428 32.7158C15.1829 32.7158 17.5105 32.1332 19.4512 31.0186Z" fill="#FF4E70"/>
<path d="M8.7115 22.7004C8.37056 21.821 8.33341 21.1198 8.33341 18.7433V0.556458L6.41016 2.49979V18.7675C6.41016 21.2758 6.44294 22.1596 6.91938 23.4214C7.23085 24.1413 7.67589 24.7949 8.23069 25.3472L9.61412 24.0084C9.2288 23.6379 8.9218 23.193 8.7115 22.7004V22.7004Z" fill="#FFAD8D"/>
<path d="M16.1989 25.9033L15.0799 24.3293C14.3553 24.8843 13.4686 25.1826 12.5579 25.1779C11.4648 25.1756 10.4148 24.7487 9.62708 23.9864L8.24365 25.3252C9.38993 26.4723 10.9409 27.1164 12.5579 27.1168C13.8707 27.1231 15.1495 26.6969 16.1989 25.9033Z" fill="#FFFF8B"/>
<path d="M50.4853 2.51053L48.562 0.5672H56.4036L54.4782 2.51053H50.4853Z" fill="#FFFF8B"/>
<path d="M54.4761 2.51053L56.4015 0.5672V32.3179L54.4761 30.3745V2.51053Z" fill="#FFAD8D"/>
<path d="M54.4758 30.368L56.4012 32.3114H48.5596L50.4828 30.368H54.4758Z" fill="#FF4E70"/>
<path d="M50.4853 30.3682L48.562 32.3115V19.9195L50.4853 19.1039V30.3682Z" fill="#00A69B"/>
<path d="M50.4853 19.1037L48.562 19.9193L37.5907 9.05292L35.6675 4.4364L50.4853 19.1037Z" fill="#FF4E70"/>
<path d="M35.6719 4.42529L37.5951 9.04181V32.3179L35.6719 30.3745V4.42529Z" fill="#FFAD8D"/>
<path d="M35.6716 30.368L37.5904 32.318H29.8013L31.7267 30.3746L35.6716 30.368Z" fill="#FF4E70"/>
<path d="M31.7267 30.3679L29.8013 32.3179V0.5672L31.7267 2.51053V30.3679Z" fill="#00A69B"/>
<path d="M31.7267 2.51053L29.8013 0.5672H39.2208L38.4646 2.51053H31.7267Z" fill="#FFFF8B"/>
<path d="M38.4648 2.51054L39.2254 0.5672L48.5641 9.39794L50.4874 13.876L38.4648 2.51054Z" fill="#FFFF8B"/>
<path d="M50.4853 13.876L48.562 9.39794V0.5672L50.4853 2.51054V13.876Z" fill="#00A69B"/>
<path d="M54.4761 2.51062V30.368H50.4853V19.1037L35.6719 4.42538V30.3658H31.7271V2.51062H38.465L50.4853 13.8761V2.51062H54.4761Z" fill="url(#paint1_linear_225_15243)"/>
<path d="M68.9702 12.1791L74.893 23.6963L68.9702 12.1791Z" fill="#FFAD8D"/>
<path d="M74.895 23.696L80.9904 12.1459L74.895 23.696Z" fill="#00A69B"/>
<path d="M86.9093 14.153L88.8347 14.6674L78.8251 32.4146L77.7104 30.4713L86.9093 14.153Z" fill="#FFAD8D"/>
<path d="M77.7102 30.4712L78.8248 32.4145L70.9395 32.375L72.0715 30.4382L77.7102 30.4712Z" fill="#FF4E70"/>
<path d="M72.0715 30.4383L70.9394 32.375L61.1265 14.6674L63.0497 14.1617L72.0715 30.4383Z" fill="#00A69B"/>
<path d="M63.0497 14.1618L61.1265 14.6674V0.5672L63.0497 2.51054V14.1618Z" fill="#00A69B"/>
<path d="M63.0497 2.51053L61.1265 0.5672H68.9703L67.0448 2.51053H63.0497Z" fill="#FFFF8B"/>
<path d="M67.0454 12.6562L68.9708 12.1791L74.8936 23.6963L74.8717 27.8731L67.0454 12.6562Z" fill="#FFAD8D"/>
<path d="M74.8716 27.8663L74.8956 23.6895L80.991 12.1394L82.9121 12.623L74.8716 27.8663Z" fill="#00A69B"/>
<path d="M82.9118 12.6295L80.9907 12.1459V0.5672L82.9118 2.51053V12.6295Z" fill="#00A69B"/>
<path d="M82.9118 2.51053L80.9907 0.5672H88.8345L86.9091 2.51053H82.9118Z" fill="#FFFF8B"/>
<path d="M67.0454 2.51054L68.9709 0.5672V12.1788L67.0454 12.6559V2.51054Z" fill="#FFAD8D"/>
<path d="M86.9092 2.51054L88.8346 0.5672V14.6674L86.9092 14.153V2.51054Z" fill="#FFAD8D"/>
<path d="M86.9091 2.51062V14.1618L77.7102 30.4713L72.0716 30.4384L63.0498 14.1706V2.51941H67.0449V12.6648L74.8713 27.8751L82.9118 12.6384V2.52601L86.9091 2.51062Z" fill="url(#paint2_linear_225_15243)"/>
<path d="M100.896 5.88062L102.818 7.81955V12.2712L100.896 14.2123V5.88062Z" fill="#FFAD8D"/>
<path d="M100.896 14.2126L102.818 12.2714H115.677L113.754 14.2126H100.896Z" fill="#FFFF8B"/>
<path d="M113.754 14.2126L115.677 12.2714V19.3677L113.754 17.4265V14.2126Z" fill="#FFAD8D"/>
<path d="M113.754 17.4265L115.677 19.3676H102.818L100.896 17.4265H113.754Z" fill="#FF4E70"/>
<path d="M100.896 17.4265L102.818 19.3676V24.9975L100.896 26.9387V17.4265Z" fill="#FFAD8D"/>
<path d="M100.896 26.9385L102.818 24.9974H114.348L112.423 26.9385H100.896Z" fill="#FFFF8B"/>
<path d="M112.423 26.9385L114.348 24.9974V32.2013L112.423 30.258V26.9385Z" fill="#FFAD8D"/>
<path d="M96.9211 30.2582L94.9956 32.2015V19.3676L96.9211 17.4265V30.2582Z" fill="#00A69B"/>
<path d="M96.921 17.4265L94.9956 19.3676H92.998L94.9235 17.4265H96.921Z" fill="#FF4E70"/>
<path d="M94.9235 17.4264L92.998 19.3675V12.1658L94.9235 14.1091V17.4264Z" fill="#00A69B"/>
<path d="M94.9235 14.1091L92.998 12.1658H94.9956L96.921 14.1091H94.9235Z" fill="#FFFF8B"/>
<path d="M96.9211 14.109L94.9956 12.1657V0.5672L96.9211 2.51053V14.109Z" fill="#00A69B"/>
<path d="M96.921 2.51053L94.9956 0.5672H113.428L111.505 2.51053H96.921Z" fill="#FFFF8B"/>
<path d="M112.423 30.2582L114.348 32.2015H94.9956L96.921 30.2582H112.423Z" fill="#FF4E70"/>
<path d="M111.494 2.51053L113.417 0.5672V7.82173L111.494 5.88279V2.51053Z" fill="#FFAD8D"/>
<path d="M111.494 5.88062L113.417 7.81955H102.818L100.896 5.88062H111.494Z" fill="#FF4E70"/>
<path d="M111.492 2.51062V5.88068H100.896V14.2124H113.754V17.4264H100.896V26.9386H112.423V30.2581H96.9209V17.4264H94.9233V14.1091H96.9209V2.51062H111.492Z" fill="url(#paint3_linear_225_15243)"/>
<path d="M135.675 6.26536L135.6 5.93781L135.655 6.24997" fill="#6B643F"/>
<path d="M140.325 22.375C140.29 28.3897 135.563 32.7512 129.089 32.76C135.578 32.7578 140.294 28.3897 140.325 22.375Z" fill="#6B643F"/>
<path d="M131.756 22.6278C131.756 21.2846 130.987 20.6492 129.789 19.7435C130.987 20.6427 131.765 21.2846 131.756 22.6278Z" fill="#6B643F"/>
<path d="M137.045 3.28464L139.549 2.72626L136.223 8.82446L135.6 5.93804L137.045 3.28464Z" fill="#FFAD8D"/>
<path d="M135.6 5.93781L135.675 6.26536L135.62 5.95099" fill="#6B643F"/>
<path d="M120.973 28.2818L118.44 28.7214L122.575 22.0121L123.062 24.8985L120.973 28.2818Z" fill="#00A69B"/>
<path d="M135.601 5.93803L136.223 8.82446C134.912 7.8374 133.382 7.28562 132.261 7.28562C131.762 7.29211 131.275 7.4449 130.86 7.72529L129.741 6.15787C130.48 5.63685 131.359 5.35396 132.261 5.34668C133.832 5.36207 135.758 6.06994 135.594 5.94903" fill="#FF4E70"/>
<path d="M129.736 6.15784L130.858 7.72746C130.588 7.8887 130.362 8.11545 130.202 8.38696C130.042 8.65344 129.949 8.95533 129.931 9.2663C129.931 10.5282 131.052 11.6009 132.717 12.6583C137.963 15.9559 140.312 18.374 140.319 22.3091C140.349 23.9764 139.964 25.6248 139.199 27.1043C138.434 28.5837 137.314 29.8471 135.939 30.7793L134.818 29.1943C135.944 28.4428 136.864 27.4177 137.493 26.2139C138.121 25.0101 138.437 23.6663 138.413 22.3069C138.424 19.3479 136.595 17.3848 131.71 14.2917C129.743 13.0518 128.067 11.546 128.023 9.25311C128.04 8.63372 128.205 8.02758 128.505 7.48607C128.804 6.94457 129.229 6.48367 129.743 6.14246" fill="#FFAD8D"/>
<path d="M134.811 29.1808L135.93 30.7636C133.899 32.1031 131.514 32.7978 129.085 32.7575H128.899C125.258 32.7355 121.617 31.3066 118.435 28.717L120.955 28.2773C122.498 29.5281 125.717 30.79 128.899 30.8208H129.076C131.101 30.8536 133.09 30.2838 134.794 29.183" fill="#FF4E70"/>
<path d="M131.043 1.94581C133.448 1.94581 136.544 2.90868 137.047 3.2846L135.6 5.938C135.769 6.05891 133.839 5.35104 132.267 5.33566C130.154 5.33566 128.065 6.97782 128.017 9.24431C128.062 11.5372 129.765 13.0452 131.704 14.2829C136.588 17.3936 138.426 19.3391 138.404 22.2937C138.404 27.2048 134.595 30.7925 129.094 30.8188H128.917C125.746 30.7991 122.516 29.5372 120.973 28.2732L123.062 24.8811C123.761 25.4461 126.227 26.7497 128.51 26.7783C128.615 26.7981 128.723 26.7981 128.827 26.7783C132.624 26.5585 133.483 25.4175 133.668 23.0015C133.841 20.4075 132.468 19.3259 130.93 18.1652C128.629 16.4417 126.168 15.0567 124.664 13.1398C123.733 11.9291 123.21 10.4513 123.171 8.92115C123.152 5.18397 126.648 1.94141 130.967 1.92822L131.043 1.94581Z" fill="url(#paint4_linear_225_15243)"/>
<path d="M130.967 1.94573H131.043C133.448 1.94573 136.544 2.9086 137.047 3.28452L139.549 2.71954C137.331 1.08617 133.839 0.0155819 131.057 0.000193526H130.967C129.612 -0.00675256 128.27 0.25949 127.019 0.783194C125.768 1.3069 124.635 2.07744 123.685 3.0493C122.141 4.60706 121.262 6.70874 121.235 8.90788H123.178C123.202 7.22313 123.876 5.61387 125.06 4.42106C125.829 3.63301 126.747 3.00797 127.761 2.58282C128.774 2.15768 129.862 1.94106 130.96 1.94573H130.967Z" fill="#FFFF8B"/>
<path d="M130.932 18.2002C128.629 16.4723 126.168 15.0896 124.664 13.1704C123.733 11.9597 123.21 10.4819 123.171 8.9518V8.92542H121.248V8.95399C121.287 10.9217 121.957 12.8241 123.158 14.3773C124.907 16.6042 127.529 18.0683 129.782 19.7479C130.939 20.614 131.701 21.2427 131.749 22.4826H133.677C133.642 20.2601 132.359 19.24 130.932 18.2002Z" fill="#00A69B"/>
<path d="M131.752 22.4784C131.758 22.6081 131.758 22.7379 131.752 22.8675C131.728 23.2046 131.605 23.5269 131.398 23.793C130.928 24.3998 129.999 24.7867 128.74 24.846H128.522C126.841 24.846 124.749 23.7689 122.575 22.019L123.062 24.9054C123.764 25.4726 126.229 26.7762 128.511 26.8026C128.615 26.8223 128.723 26.8223 128.827 26.8026C131.068 26.6685 132.285 26.2178 132.945 25.389C133.402 24.8021 133.601 24.0305 133.668 23.0368V22.5092L131.752 22.4784Z" fill="#FFFF8B"/>
<path d="M145.295 2.51053L143.37 0.5672H172L170.077 2.51053H145.295Z" fill="#FFFF8B"/>
<path d="M170.074 2.51054L172 0.5672V12.8955L170.074 10.9544V2.51054Z" fill="#FFAD8D"/>
<path d="M170.077 10.9543L172 12.8955H165.282L167.207 10.9543H170.077Z" fill="#FF4E70"/>
<path d="M167.207 10.9545L165.282 12.8956V8.48136L167.207 6.54242V10.9545Z" fill="#00A69B"/>
<path d="M167.207 6.54242L165.281 8.48136H161.566L159.641 6.54242H167.207Z" fill="#FF4E70"/>
<path d="M159.652 6.54242L161.577 8.48136V32.318L159.652 30.3768V6.54242Z" fill="#FFAD8D"/>
<path d="M159.652 30.3727L161.577 32.3138H153.736L155.657 30.3727H159.652Z" fill="#FF4E70"/>
<path d="M155.657 30.3725L153.736 32.318V8.48136L155.657 6.54242V30.3725Z" fill="#00A69B"/>
<path d="M155.657 6.54242L153.736 8.48136H149.99L148.066 6.54242H155.657Z" fill="#FF4E70"/>
<path d="M148.066 6.54242L149.99 8.48136V12.8956L148.066 10.9545V6.54242Z" fill="#FFAD8D"/>
<path d="M148.066 10.9543L149.99 12.8955H143.37L145.293 10.9543H148.066Z" fill="#FF4E70"/>
<path d="M145.295 10.9544L143.372 12.8955V0.5672L145.295 2.51054V10.9544Z" fill="#00A69B"/>
<path d="M170.077 2.51062V10.9545H167.207V6.54238H159.652V30.3724H155.657V6.54238H148.067V10.9545H145.295V2.51062H170.077Z" fill="url(#paint5_linear_225_15243)"/>
</g>
<defs>
<linearGradient id="paint0_linear_225_15243" x1="12.5402" y1="30.8143" x2="12.5402" y2="2.51062" gradientUnits="userSpaceOnUse">
<stop stop-color="#FFD871"/>
<stop offset="0.09" stop-color="#F3DA78"/>
<stop offset="0.25" stop-color="#D3DF8A"/>
<stop offset="0.46" stop-color="#9EE7A7"/>
<stop offset="0.72" stop-color="#56F2CF"/>
<stop offset="1" stop-color="#00FFFF"/>
</linearGradient>
<linearGradient id="paint1_linear_225_15243" x1="6952.21" y1="1753.91" x2="6952.21" y2="5284" gradientUnits="userSpaceOnUse">
<stop stop-color="#FFD871"/>
<stop offset="0.09" stop-color="#F3DA78"/>
<stop offset="0.25" stop-color="#D3DF8A"/>
<stop offset="0.46" stop-color="#9EE7A7"/>
<stop offset="0.72" stop-color="#56F2CF"/>
<stop offset="1" stop-color="#00FFFF"/>
</linearGradient>
<linearGradient id="paint2_linear_225_15243" x1="10801.6" y1="1747.26" x2="10801.6" y2="5303.58" gradientUnits="userSpaceOnUse">
<stop stop-color="#FFD871"/>
<stop offset="0.09" stop-color="#F3DA78"/>
<stop offset="0.25" stop-color="#D3DF8A"/>
<stop offset="0.46" stop-color="#9EE7A7"/>
<stop offset="0.72" stop-color="#56F2CF"/>
<stop offset="1" stop-color="#00FFFF"/>
</linearGradient>
<linearGradient id="paint3_linear_225_15243" x1="11099.6" y1="1760.87" x2="11099.6" y2="5263.16" gradientUnits="userSpaceOnUse">
<stop stop-color="#FFD871"/>
<stop offset="0.09" stop-color="#F3DA78"/>
<stop offset="0.25" stop-color="#D3DF8A"/>
<stop offset="0.46" stop-color="#9EE7A7"/>
<stop offset="0.72" stop-color="#56F2CF"/>
<stop offset="1" stop-color="#00FFFF"/>
</linearGradient>
<linearGradient id="paint4_linear_225_15243" x1="12330.2" y1="1759.06" x2="12330.2" y2="5554.42" gradientUnits="userSpaceOnUse">
<stop stop-color="#FFD871"/>
<stop offset="0.09" stop-color="#F3DA78"/>
<stop offset="0.25" stop-color="#D3DF8A"/>
<stop offset="0.46" stop-color="#9EE7A7"/>
<stop offset="0.72" stop-color="#56F2CF"/>
<stop offset="1" stop-color="#00FFFF"/>
</linearGradient>
<linearGradient id="paint5_linear_225_15243" x1="20676.8" y1="1753.62" x2="20676.8" y2="5284.83" gradientUnits="userSpaceOnUse">
<stop stop-color="#FFD871"/>
<stop offset="0.09" stop-color="#F3DA78"/>
<stop offset="0.25" stop-color="#D3DF8A"/>
<stop offset="0.46" stop-color="#9EE7A7"/>
<stop offset="0.72" stop-color="#56F2CF"/>
<stop offset="1" stop-color="#00FFFF"/>
</linearGradient>
<clipPath id="clip0_225_15243">
<rect width="172" height="32.7619" fill="white"/>
</clipPath>
</defs>
</svg>
