<svg width="72" height="72" viewBox="0 0 72 72" fill="none" xmlns="http://www.w3.org/2000/svg">
<path d="M36 21.3333C34.8201 21.3333 33.7712 21.8542 33.0391 22.6666H29.3334L30.6667 26.6666H41.3334L42.6667 22.6666H38.961C38.2289 21.8542 37.1799 21.3333 36 21.3333ZM30.6667 29.3333C30.6667 29.3333 22.6667 33.352 22.6667 42.6666C22.6667 45.7586 23.7295 47.8893 25.4948 49.3333H46.5052C48.2706 47.8893 49.3334 45.7586 49.3334 42.6666C49.3334 33.3533 41.3334 29.3333 41.3334 29.3333H30.6667ZM35.6511 31.6172H36.8776V33.388C37.267 33.4627 39.4531 33.9589 39.4531 37.1562H37.1537C37.1537 35.4856 36.4685 35.2239 36.1459 35.2239C35.8939 35.2239 35.2292 35.2673 35.2292 36.638C35.2279 39.0313 39.4349 38.2849 39.4349 42.1849C39.4349 45.0169 37.1099 45.3985 36.6979 45.4505V47.0677H35.4792V45.4505C35.0992 45.3985 32.5469 45.1176 32.5469 41.5989H34.8464C34.8464 43.6763 35.9181 43.5911 36.0807 43.5911C36.2594 43.5911 37.138 43.5578 37.138 42.2005C37.138 39.4885 32.9297 40.6916 32.9297 36.6276C32.9297 33.8423 35.2391 33.4088 35.6511 33.3568V31.6172Z" fill="#FDDB92"/>
<rect x="0.5" y="0.5" width="71" height="71" rx="7.5" stroke="#FDDB92"/>
</svg>
