<svg width="72" height="72" viewBox="0 0 72 72" fill="none" xmlns="http://www.w3.org/2000/svg">
<g clip-path="url(#clip0_1_682)">
<path d="M33.3333 20V23.349C32.8263 23.6251 32.3651 23.9568 32.0026 24.3646C31.0916 25.3895 30.6667 26.7037 30.6667 28C30.6667 29.2963 31.0916 30.6105 32.0026 31.6354C32.9136 32.6603 34.3333 33.3333 36 33.3333C37.6667 33.3333 39.0864 32.6603 39.9974 31.6354C40.9084 30.6105 41.3333 29.2963 41.3333 28C41.3333 26.7037 40.9084 25.3895 39.9974 24.3646C39.6349 23.9568 39.1737 23.6251 38.6667 23.349V20H33.3333ZM36 25.3333C37 25.3333 37.5803 25.6603 38.0026 26.1354C38.4249 26.6105 38.6667 27.2963 38.6667 28C38.6667 28.7037 38.4249 29.3895 38.0026 29.8646C37.5803 30.3397 37 30.6667 36 30.6667C35 30.6667 34.4197 30.3397 33.9974 29.8646C33.5751 29.3895 33.3333 28.7037 33.3333 28C33.3333 27.2963 33.5751 26.6105 33.9974 26.1354C34.4197 25.6603 35 25.3333 36 25.3333ZM26.6667 28C26.313 28 25.9739 28.1405 25.7239 28.3905C25.4738 28.6406 25.3333 28.9797 25.3333 29.3333C25.3333 29.687 25.4738 30.0261 25.7239 30.2761C25.9739 30.5262 26.313 30.6667 26.6667 30.6667C27.0203 30.6667 27.3594 30.5262 27.6095 30.2761C27.8595 30.0261 28 29.687 28 29.3333C28 28.9797 27.8595 28.6406 27.6095 28.3905C27.3594 28.1405 27.0203 28 26.6667 28ZM45.3333 28C44.9797 28 44.6406 28.1405 44.3905 28.3905C44.1405 28.6406 44 28.9797 44 29.3333C44 29.687 44.1405 30.0261 44.3905 30.2761C44.6406 30.5262 44.9797 30.6667 45.3333 30.6667C45.687 30.6667 46.0261 30.5262 46.2761 30.2761C46.5262 30.0261 46.6667 29.687 46.6667 29.3333C46.6667 28.9797 46.5262 28.6406 46.2761 28.3905C46.0261 28.1405 45.687 28 45.3333 28ZM29.3333 33.3333C28.9797 33.3333 28.6406 33.4738 28.3905 33.7239C28.1405 33.9739 28 34.313 28 34.6667C28 35.0203 28.1405 35.3594 28.3905 35.6095C28.6406 35.8595 28.9797 36 29.3333 36C29.687 36 30.0261 35.8595 30.2761 35.6095C30.5262 35.3594 30.6667 35.0203 30.6667 34.6667C30.6667 34.313 30.5262 33.9739 30.2761 33.7239C30.0261 33.4738 29.687 33.3333 29.3333 33.3333ZM42.6667 33.3333C42.313 33.3333 41.9739 33.4738 41.7239 33.7239C41.4738 33.9739 41.3333 34.313 41.3333 34.6667C41.3333 35.0203 41.4738 35.3594 41.7239 35.6095C41.9739 35.8595 42.313 36 42.6667 36C43.0203 36 43.3594 35.8595 43.6095 35.6095C43.8595 35.3594 44 35.0203 44 34.6667C44 34.313 43.8595 33.9739 43.6095 33.7239C43.3594 33.4738 43.0203 33.3333 42.6667 33.3333ZM36 36C35.6464 36 35.3072 36.1405 35.0572 36.3905C34.8071 36.6406 34.6667 36.9797 34.6667 37.3333C34.6667 37.687 34.8071 38.0261 35.0572 38.2761C35.3072 38.5262 35.6464 38.6667 36 38.6667C36.3536 38.6667 36.6928 38.5262 36.9428 38.2761C37.1929 38.0261 37.3333 37.687 37.3333 37.3333C37.3333 36.9797 37.1929 36.6406 36.9428 36.3905C36.6928 36.1405 36.3536 36 36 36ZM29.3333 38.6667C28.3327 38.6667 27.4939 39.1632 26.8594 39.763C26.2248 40.3629 25.7336 41.0991 25.3229 41.888C24.5016 43.4659 24 45.2018 24 46.6667C24 49.5964 26.4036 52 29.3333 52C32.2631 52 34.6667 49.5964 34.6667 46.6667C34.6667 45.2018 34.1651 43.4659 33.3437 41.888C32.9331 41.0991 32.4418 40.3629 31.8073 39.763C31.1728 39.1632 30.334 38.6667 29.3333 38.6667ZM42.6667 38.6667C41.666 38.6667 40.8272 39.1632 40.1927 39.763C39.5582 40.3629 39.0669 41.0991 38.6563 41.888C37.8349 43.4659 37.3333 45.2018 37.3333 46.6667C37.3333 49.5964 39.7369 52 42.6667 52C45.5964 52 48 49.5964 48 46.6667C48 45.2018 47.4984 43.4659 46.6771 41.888C46.2664 41.0991 45.7752 40.3629 45.1406 39.763C44.5061 39.1632 43.6673 38.6667 42.6667 38.6667Z" fill="#FDDB92"/>
</g>
<rect x="0.5" y="0.5" width="71" height="71" rx="7.5" stroke="#FDDB92"/>
<defs>
<clipPath id="clip0_1_682">
<rect width="32" height="32" fill="white" transform="translate(20 20)"/>
</clipPath>
</defs>
</svg>
