<svg width="72" height="72" viewBox="0 0 72 72" fill="none" xmlns="http://www.w3.org/2000/svg">
<path d="M28 22.6667C26.5261 22.6667 25.3333 23.8594 25.3333 25.3334C25.3333 26.8073 26.5261 28 28 28C28.1146 28 28.224 27.974 28.3333 27.9584L29.4167 29.4167C27.7292 31.1042 26.6667 33.4219 26.6667 36C26.6667 36.2396 26.6927 36.474 26.7083 36.7084L25.9583 36.875C25.4688 36.3438 24.7813 36 24 36C22.5261 36 21.3333 37.1927 21.3333 38.6667C21.3333 40.1406 22.5261 41.3334 24 41.3334C25.1979 41.3334 26.2031 40.5417 26.5417 39.4584L27.2917 39.2917C27.849 40.7709 28.7761 42.0729 29.9583 43.0834L29.4167 44C29.3906 44 29.3594 44 29.3333 44C27.8594 44 26.6667 45.1927 26.6667 46.6667C26.6667 48.1406 27.8594 49.3334 29.3333 49.3334C30.8073 49.3334 32 48.1406 32 46.6667C32 46.2136 31.8646 45.7917 31.6667 45.4167L32.25 44.5417C33.3958 45.0469 34.6667 45.3334 36 45.3334C38.3177 45.3334 40.4115 44.4792 42.0417 43.0834L44.0417 44.7917C44.0052 44.9636 44 45.1511 44 45.3334C44 46.8073 45.1927 48 46.6667 48C48.1406 48 49.3333 46.8073 49.3333 45.3334C49.3333 43.8594 48.1406 42.6667 46.6667 42.6667C46.3594 42.6667 46.0677 42.7396 45.7917 42.8334L43.8333 41.0834C44.7865 39.6198 45.3333 37.8802 45.3333 36C45.3333 33.8959 44.6354 31.9792 43.4583 30.4167L46 27.9167C46.2136 27.974 46.4375 28 46.6667 28C48.1406 28 49.3333 26.8073 49.3333 25.3334C49.3333 23.8594 48.1406 22.6667 46.6667 22.6667C45.1927 22.6667 44 23.8594 44 25.3334C44 25.5625 44.0261 25.7865 44.0833 26L41.5833 28.5417C40.0208 27.3646 38.1042 26.6667 36 26.6667C34.3906 26.6667 32.8646 27.0729 31.5417 27.7917L30.4583 26.375C30.5938 26.0573 30.6667 25.7031 30.6667 25.3334C30.6667 23.8594 29.474 22.6667 28 22.6667ZM35.2917 29.3334H37.0417V30.875C37.7292 31.0104 39.3906 31.5781 39.4583 34.125H37.4167C37.4167 33.5625 37.3125 32.4584 36.1667 32.4584C35.9583 32.4584 34.9583 32.5052 34.9583 33.6667C34.9583 35.6615 39.4583 34.9948 39.4583 38.4584C39.4583 38.849 39.4063 40.6406 37.0417 41.1667V42.6667H35.2917V41.2084C32.6146 40.7604 32.5417 38.5 32.5417 37.9584H34.5833C34.5833 38.2917 34.599 39.6667 36.0833 39.6667C37.3125 39.6667 37.4167 38.6302 37.4167 38.4584C37.4167 36.1459 32.9167 37.3073 32.9167 33.6667C32.9167 31.6563 34.4896 31.0834 35.2917 30.9167V29.3334Z" fill="#FDDB92"/>
<rect x="0.5" y="0.5" width="71" height="71" rx="7.5" stroke="#FDDB92"/>
</svg>
