<svg width="177" height="35" viewBox="0 0 177 35" fill="none" xmlns="http://www.w3.org/2000/svg">
<path d="M69.4894 11.1133C70.5678 11.704 71.4803 12.5163 72.0609 13.6239C72.7245 14.7316 73.0563 16.0608 73.0563 17.5376C73.0563 19.0145 72.7245 20.2699 71.978 21.3775C71.3143 22.4851 70.3189 23.2974 69.0745 23.8142C67.8303 24.405 66.337 24.7005 64.761 24.7005C63.8485 24.7005 63.0188 24.5527 62.1894 24.2574C61.3597 24.0359 60.6132 23.5927 60.0325 23.0759V30.7556H55.2212V10.5225H59.3688L59.7837 12.1471C61.6086 10.8179 63.5996 10.1533 65.6734 10.1533C67.0836 10.1533 68.4109 10.4487 69.4894 11.1133ZM66.8348 20.2699C67.6643 19.6053 68.079 18.7191 68.079 17.6115C68.079 16.5039 67.6643 15.6178 66.9178 14.8793C66.1712 14.1408 65.1757 13.8455 64.0974 13.8455C63.1848 13.8455 62.3552 13.9932 61.6916 14.3624C61.0279 14.6577 60.5303 15.1747 60.1155 15.8393V19.1621C60.3643 19.8268 60.8621 20.3436 61.4428 20.7129C62.1065 21.0821 62.853 21.3036 63.7656 21.3036C65.0098 21.3036 66.0052 20.9344 66.8348 20.2699Z" fill="white"/>
<path d="M75.8766 13.6962C76.6233 12.6624 77.6186 11.7763 78.9459 11.1855C80.2732 10.5948 81.7664 10.2256 83.4255 10.2256C85.0846 10.2256 86.5777 10.521 87.905 11.1855C89.1494 11.7763 90.1448 12.6624 90.8914 13.7701C91.6379 14.8777 91.9698 16.0592 91.9698 17.4622C91.9698 18.8653 91.6379 20.0468 90.8914 21.1544C90.1448 22.262 89.2323 23.1481 87.905 23.7389C86.6606 24.3296 85.0846 24.6989 83.4255 24.6989C81.7664 24.6989 80.2732 24.4035 78.9459 23.8128C77.6186 23.222 76.6233 22.4098 75.8766 21.302C75.213 20.1944 74.7982 18.939 74.7982 17.4622C74.7982 16.0592 75.213 14.8039 75.8766 13.6962ZM80.771 20.1205C81.4346 20.859 82.3472 21.1544 83.4255 21.1544C84.5039 21.1544 85.4164 20.7852 86.0801 20.1205C86.7437 19.4559 87.0755 18.496 87.0755 17.4622C87.0755 16.3546 86.7437 15.4685 86.0801 14.8039C85.3334 14.0654 84.5039 13.6962 83.3426 13.6962C82.2641 13.6962 81.4346 14.0654 80.6881 14.73C80.0244 15.4685 79.6926 16.3546 79.6926 17.4622C79.6926 18.496 80.0244 19.3822 80.771 20.1205Z" fill="white"/>
<path d="M99.7682 0.0361328V24.3305H94.9569V0.0361328H99.7682Z" fill="white"/>
<path d="M119.511 10.8907L109.722 30.8284H105.077L108.727 23.6656L101.759 10.8907H107.234L111.215 18.8657L115.197 10.8907H119.511Z" fill="white"/>
<path d="M137.926 10.8902V24.3296C137.926 25.5849 137.511 26.7664 136.682 27.8003C135.852 28.834 134.774 29.6464 133.363 30.2371C131.953 30.8279 130.46 31.1231 128.801 31.1231C127.557 31.1231 126.478 30.9755 125.566 30.754C124.653 30.4586 123.907 30.1632 123.326 29.8679C122.662 29.4986 121.999 29.0556 121.252 28.4649L124.073 25.5111C124.736 26.1019 125.483 26.5449 126.146 26.8403C126.81 27.1356 127.723 27.3571 128.718 27.3571C129.962 27.3571 130.958 27.0619 131.787 26.5449C132.617 26.028 133.032 25.2158 133.032 24.2558V22.3359C132.534 23.0004 131.87 23.5913 130.875 24.0343C129.879 24.4773 128.718 24.6989 127.391 24.6989C126.064 24.6989 124.736 24.4035 123.575 23.7389C122.414 23.1481 121.501 22.262 120.754 21.1544C120.091 20.0468 119.676 18.8653 119.676 17.5361C119.676 16.2068 120.008 14.9516 120.754 13.8439C121.501 12.7363 122.414 11.8501 123.658 11.1855C124.819 10.521 126.064 10.2256 127.391 10.2256C128.635 10.2256 129.713 10.3733 130.709 10.6686C131.704 10.964 132.451 11.4071 132.949 11.924L133.446 10.8902H137.926ZM133.032 19.1607V15.8377C132.7 15.1731 132.202 14.6562 131.456 14.287C130.709 13.9177 129.879 13.6962 128.884 13.6962C127.723 13.6962 126.727 14.0654 125.898 14.73C125.068 15.3946 124.653 16.2807 124.653 17.3883C124.653 18.4222 125.068 19.3822 125.898 20.1205C126.727 20.859 127.723 21.2283 128.884 21.2283C130.792 21.1544 132.202 20.4898 133.032 19.1607Z" fill="white"/>
<path d="M141.909 13.6978C142.656 12.5901 143.651 11.7779 144.978 11.1133C146.306 10.5225 147.799 10.1533 149.458 10.1533C151.117 10.1533 152.61 10.4487 153.937 11.1133C155.182 11.704 156.177 12.5901 156.924 13.6978C157.587 14.8054 158.002 15.9869 158.002 17.3899C158.002 18.793 157.67 19.9745 156.924 21.0821C156.26 22.1897 155.265 23.0759 153.937 23.6666C152.693 24.2574 151.117 24.6266 149.458 24.6266C147.799 24.6266 146.306 24.3312 144.978 23.7405C143.651 23.1497 142.656 22.3375 141.909 21.2299C141.162 20.1221 140.831 18.8669 140.831 17.3161C140.831 16.0608 141.162 14.8054 141.909 13.6978ZM146.72 20.1221C147.384 20.8605 148.296 21.156 149.375 21.156C150.453 21.156 151.366 20.7867 152.029 20.1221C152.693 19.4575 153.025 18.4976 153.025 17.4638C153.025 16.3561 152.693 15.47 152.029 14.8054C151.366 14.1408 150.453 13.7716 149.375 13.7716C148.296 13.7716 147.467 14.1408 146.72 14.8054C145.974 15.47 145.642 16.43 145.642 17.4638C145.725 18.4976 146.057 19.3836 146.72 20.1221Z" fill="white"/>
<path d="M175.008 11.3332C176.004 12.0717 176.418 13.0316 176.5 14.2131V24.3296H171.607V15.8377C171.524 14.5085 170.777 13.8439 169.367 13.8439C168.289 13.8439 167.376 14.287 166.712 15.2469C166.049 16.2068 165.717 17.3883 165.717 18.7914V24.3296H160.906V10.8902H165.302L165.634 13.0316C166.215 12.1455 166.961 11.4809 167.957 10.964C168.952 10.4471 170.114 10.2256 171.441 10.2256C172.851 10.2256 174.095 10.5948 175.008 11.3332Z" fill="white"/>
<path d="M34.6484 10.6703C33.8188 10.2273 32.7404 10.2273 31.828 10.6703L25.3575 14.0671L20.9609 16.2825L14.4905 19.6792C13.661 20.1222 12.5826 20.1222 11.6701 19.6792L6.52692 17.0208C5.69737 16.5777 5.1167 15.7655 5.1167 14.8794V9.63652C5.1167 8.7504 5.61443 7.93813 6.52692 7.49507L11.5871 4.91057C12.4167 4.46751 13.4951 4.46751 14.4076 4.91057L19.4678 7.49507C20.2973 7.93813 20.878 8.7504 20.878 9.63652V13.0333L25.2746 10.7442V7.34739C25.2746 6.46126 24.7769 5.64899 23.8644 5.20593L14.4905 0.332294C13.661 -0.110765 12.5826 -0.110765 11.6701 0.332294L2.13035 5.20593C1.21785 5.64899 0.720123 6.46126 0.720123 7.34739V17.1685C0.720123 18.0546 1.21785 18.867 2.13035 19.31L11.6701 24.1836C12.4996 24.6267 13.578 24.6267 14.4905 24.1836L20.9609 20.8607L25.3575 18.5716L31.828 15.2486C32.6575 14.8055 33.7359 14.8055 34.6484 15.2486L39.7086 17.8331C40.5381 18.2761 41.1188 19.0885 41.1188 19.9746V25.2174C41.1188 26.1036 40.6211 26.9158 39.7086 27.3588L34.6484 30.0172C33.8188 30.4603 32.7404 30.4603 31.828 30.0172L26.7678 27.4327C25.9382 26.9897 25.3575 26.1773 25.3575 25.2912V21.8945L20.9609 24.1836V27.5804C20.9609 28.4664 21.4587 29.2788 22.3711 29.7218L31.9109 34.5955C32.7404 35.0385 33.8188 35.0385 34.7313 34.5955L44.2711 29.7218C45.1006 29.2788 45.6813 28.4664 45.6813 27.5804V17.7592C45.6813 16.8731 45.1835 16.0609 44.2711 15.6179L34.6484 10.6703Z" fill="#8247E5"/>
</svg>
